<?xml version="1.0" standalone="no"?>
<!DOCTYPE svg PUBLIC "-//W3C//DTD SVG 20010904//EN"
 "http://www.w3.org/TR/2001/REC-SVG-20010904/DTD/svg10.dtd">
<svg version="1.0" xmlns="http://www.w3.org/2000/svg"
 width="500.000000pt" height="500.000000pt" viewBox="0 0 500.000000 500.000000"
 preserveAspectRatio="xMidYMid meet">
<metadata>
Created by potrace 1.15, written by Peter Selinger 2001-2017
</metadata>
<g transform="translate(0.000000,500.000000) scale(0.100000,-0.100000)"
fill="#000000" stroke="none">
<path d="M1 3983 l0 -1018 34 130 c120 467 357 874 701 1205 401 386 962 642
1509 689 62 5 -343 9 -1072 10 l-1173 1 1 -1017z"/>
<path d="M2645 4993 c345 -29 638 -106 920 -242 699 -337 1202 -969 1369
-1721 41 -186 56 -333 56 -550 0 -299 -36 -527 -125 -795 -177 -537 -519 -983
-999 -1303 -238 -159 -489 -271 -771 -343 l-150 -38 1028 0 1027 -1 0 2500 0
2500 -1197 -2 c-659 -1 -1180 -3 -1158 -5z"/>
<path d="M1 998 l-1 -998 1008 1 1007 0 -110 26 c-463 106 -906 357 -1240 704
-310 321 -523 707 -635 1152 l-29 112 0 -997z"/>
<path d="M1168 1816 c-61 -18 -130 -58 -184 -108 -149 -138 -187 -377 -87
-559 34 -63 119 -148 181 -182 27 -14 78 -33 113 -42 220 -51 427 48 526 253
33 68 38 88 41 168 9 199 -88 363 -265 447 -61 28 -78 32 -173 34 -65 1 -123
-3 -152 -11z m214 -203 l71 -147 -34 -133 c-18 -73 -35 -133 -39 -133 -3 0
-19 56 -35 125 -37 164 -48 164 -89 -2 -17 -68 -34 -123 -38 -123 -4 0 -10 10
-12 23 -3 12 -17 71 -31 131 l-25 110 72 148 c39 81 76 148 80 148 5 0 41 -66
80 -147z m-12 -447 c16 -16 25 2 60 127 18 64 36 117 40 117 13 0 50 -145 50
-197 0 -57 -10 -87 -52 -150 -67 -101 -216 -112 -311 -24 -73 67 -92 165 -57
285 13 42 27 76 31 76 5 0 13 -19 19 -42 43 -167 53 -198 65 -198 10 0 65 167
65 199 0 5 5 22 11 38 10 26 14 18 41 -97 16 -68 33 -129 38 -134z"/>
<path d="M1232 1602 c-34 -71 -62 -137 -62 -148 1 -10 11 -62 24 -114 l23 -95
16 56 c9 30 22 79 28 107 11 47 15 52 40 52 30 0 30 0 59 -130 7 -30 15 -59
18 -64 3 -5 17 35 32 90 30 113 34 94 -51 272 -27 56 -53 102 -57 102 -5 0
-36 -58 -70 -128z"/>
<path d="M1106 1291 c-25 -111 1 -197 79 -257 51 -38 143 -46 201 -16 75 39
117 107 118 192 1 56 -21 150 -34 150 -4 0 -20 -47 -36 -105 -27 -101 -30
-105 -56 -105 -26 0 -28 3 -49 100 -13 55 -26 100 -29 100 -3 0 -17 -44 -31
-97 -25 -96 -26 -98 -54 -98 -29 0 -30 2 -54 103 -14 56 -28 102 -32 102 -4 0
-15 -31 -23 -69z"/>
<path d="M2293 1618 c3 -13 15 -72 27 -133 11 -60 23 -120 26 -132 4 -20 11
-23 48 -23 l43 0 30 103 30 102 32 -102 32 -103 42 0 43 0 27 138 c35 179 36
172 -12 172 l-38 0 -13 -90 c-7 -49 -16 -90 -20 -90 -4 0 -18 41 -31 90 l-24
90 -37 0 c-40 0 -33 14 -80 -155 l-14 -50 -13 80 c-21 131 -18 125 -63 125
-37 0 -40 -2 -35 -22z"/>
<path d="M2865 1498 c-32 -79 -59 -149 -62 -155 -4 -9 7 -13 34 -13 34 0 40 4
50 30 11 28 14 30 68 30 53 0 57 -1 66 -30 10 -27 16 -30 51 -30 22 0 38 3 36
8 -1 4 -30 74 -62 155 -59 147 -60 147 -92 147 -32 0 -32 -1 -89 -142z"/>
<path d="M3200 1610 c0 -29 2 -30 45 -30 l45 0 0 -125 0 -125 35 0 34 0 3 123
3 122 43 3 c39 3 42 5 42 33 l0 29 -125 0 -125 0 0 -30z"/>
<path d="M3570 1485 l0 -155 90 0 90 0 0 30 c0 30 -1 30 -55 30 -54 0 -55 0
-55 30 0 30 1 30 55 30 l55 0 0 35 0 35 -55 0 c-54 0 -55 0 -55 30 0 30 1 30
55 30 54 0 55 0 55 30 l0 30 -90 0 -90 0 0 -155z"/>
<path d="M3890 1485 l0 -155 40 0 40 0 0 48 0 47 31 -47 c30 -45 34 -48 76
-48 50 0 50 1 -4 67 -18 23 -33 43 -33 46 0 3 9 7 20 10 32 8 54 73 41 118
-16 54 -46 69 -136 69 l-75 0 0 -155z"/>
<path d="M2565 1041 c-63 -27 -80 -106 -31 -147 86 -74 203 42 123 123 -26 26
-64 36 -92 24z"/>
<path d="M3285 1041 c-63 -27 -80 -106 -31 -147 86 -74 203 42 123 123 -26 26
-64 36 -92 24z"/>
</g>
</svg>
