<?xml version="1.0" standalone="no"?>
<!DOCTYPE svg PUBLIC "-//W3C//DTD SVG 20010904//EN"
 "http://www.w3.org/TR/2001/REC-SVG-20010904/DTD/svg10.dtd">
<svg version="1.0" xmlns="http://www.w3.org/2000/svg"
 width="500.000000pt" height="500.000000pt" viewBox="0 0 500.000000 500.000000"
 preserveAspectRatio="xMidYMid meet">
<metadata>
Created by potrace 1.15, written by Peter Selinger 2001-2017
</metadata>
<g transform="translate(0.000000,500.000000) scale(0.100000,-0.100000)"
fill="#000000" stroke="none">
<path d="M0 2500 l0 -2500 2500 0 2500 0 0 2500 0 2500 -2500 0 -2500 0 0
-2500z m1242 1983 c9 -10 18 -42 22 -70 l7 -53 -361 0 -360 0 0 50 c0 37 5 55
20 70 19 19 33 20 338 20 291 0 320 -2 334 -17z m3414 -187 c12 -17 14 -106
14 -539 0 -338 -4 -525 -10 -538 -10 -19 -31 -19 -940 -19 -909 0 -930 0 -940
19 -6 13 -10 200 -10 538 0 537 0 542 40 556 8 3 424 5 923 4 887 -2 909 -2
923 -21z m-4086 -8 c0 -6 10 -8 23 -4 40 12 667 8 682 -4 10 -8 14 -7 18 2 3
7 6 0 6 -15 1 -16 5 -26 10 -23 5 3 11 -1 14 -9 5 -12 -51 -14 -413 -15 -231
0 -420 2 -420 4 0 17 14 35 23 29 6 -4 8 0 4 10 -4 12 -2 14 10 10 12 -5 14
-1 9 15 -6 17 -3 19 14 15 11 -3 20 -10 20 -15z m1178 -382 c15 -14 17 -40 17
-192 0 -173 0 -176 -24 -195 -16 -13 -39 -19 -72 -19 l-49 0 0 216 0 216 56
-4 c33 -3 62 -11 72 -22z m-829 -147 c1 15 26 -4 209 -157 114 -95 132 -123
84 -130 -22 -3 -22 -5 -22 -183 0 -167 -1 -180 -20 -199 -20 -20 -30 -21 -270
-18 -136 2 -252 7 -257 11 -4 5 -10 93 -13 195 -5 177 -6 187 -25 190 -57 11
-42 33 110 155 55 44 120 99 144 121 41 36 45 38 52 20 4 -10 8 -13 8 -5z
m1053 -250 c35 -16 117 -126 155 -206 45 -97 63 -180 63 -294 0 -183 -65 -349
-184 -471 -44 -45 -76 -49 -111 -13 -36 35 -31 64 21 125 115 135 159 316 119
488 -19 79 -54 148 -116 229 -27 35 -49 73 -49 84 0 23 42 69 64 69 8 0 25 -5
38 -11z m-112 -188 c75 -81 128 -243 115 -351 -20 -162 -130 -335 -200 -314
-66 20 -72 72 -15 146 96 126 95 293 -3 421 -41 53 -47 95 -19 119 42 37 74
31 122 -21z m-198 -112 c13 -5 39 -33 58 -61 33 -48 35 -56 35 -132 0 -87 -15
-132 -60 -181 -28 -29 -69 -33 -103 -9 -29 20 -28 61 3 104 18 25 25 47 25 80
0 33 -7 55 -25 80 -43 59 -27 108 42 129 1 1 13 -4 25 -10z m-393 -665 c-13
-14 -42 -27 -73 -33 -71 -14 -539 -14 -590 0 -41 11 -80 41 -68 53 3 4 174 6
379 4 l373 -2 -21 -22z m1187 -45 c209 -120 435 -343 509 -504 55 -121 71
-245 46 -358 -37 -164 -165 -283 -351 -326 -223 -53 -385 -7 -546 153 -39 39
-81 90 -93 113 -25 49 -51 145 -51 186 0 71 85 229 220 408 123 164 178 278
165 346 -8 43 -6 42 101 -18z m-1133 -1471 c3 -13 13 -72 23 -133 l18 -110 23
75 c12 41 30 101 38 133 l16 57 43 0 43 0 33 -125 c19 -69 37 -125 40 -125 3
0 14 50 24 111 10 61 20 118 23 125 3 9 21 14 50 14 44 0 45 -1 40 -27 -3 -16
-20 -103 -38 -195 l-33 -168 -51 0 -51 0 -38 130 c-22 72 -41 128 -44 126 -2
-3 -21 -60 -41 -128 l-37 -123 -52 -3 c-29 -2 -52 -2 -52 0 0 2 -16 84 -35
183 -19 99 -35 186 -35 193 0 8 15 12 44 12 37 0 45 -3 49 -22z m847 -165 c41
-103 77 -191 79 -196 1 -4 -18 -7 -45 -5 -44 3 -48 5 -59 38 l-12 35 -76 3
-76 3 -12 -41 c-12 -39 -14 -40 -56 -40 -23 0 -43 4 -43 10 0 8 38 104 122
308 29 71 30 72 66 72 l37 0 75 -187z m510 147 l0 -40 -55 0 -55 0 0 -155 0
-155 -45 0 -45 0 0 155 0 155 -55 0 -55 0 0 40 0 40 155 0 155 0 0 -40z m380
0 l0 -40 -70 0 -70 0 0 -40 0 -40 65 0 65 0 0 -35 0 -35 -65 0 -65 0 0 -40 0
-40 70 0 70 0 0 -40 0 -40 -115 0 -115 0 0 195 0 195 115 0 115 0 0 -40z m375
26 c67 -28 89 -136 39 -195 -14 -17 -32 -31 -40 -31 -21 0 -18 -7 36 -76 28
-35 50 -66 50 -69 0 -3 -24 -5 -52 -5 l-53 1 -42 67 -43 67 -1 -35 c-3 -100 0
-95 -46 -98 l-43 -3 0 195 0 196 80 0 c47 0 95 -6 115 -14z m-2851 -891 c6
-16 14 -3 38 60 17 44 34 83 38 88 3 4 16 -39 28 -96 25 -120 25 -117 13 -117
-11 0 -15 12 -32 95 l-12 60 -30 -77 c-16 -43 -33 -78 -36 -78 -3 0 -17 30
-31 66 -13 36 -28 68 -31 70 -4 2 -13 -27 -20 -66 -8 -48 -17 -70 -26 -70 -9
0 -12 7 -10 18 3 9 11 42 17 72 7 30 16 73 22 95 l10 40 28 -70 c15 -38 30
-79 34 -90z m376 138 c94 -64 56 -203 -55 -203 -114 0 -151 152 -50 204 39 21
74 20 105 -1z m933 -23 c45 -50 32 -136 -24 -166 -92 -47 -189 30 -160 127 25
82 126 104 184 39z m232 26 c30 -13 35 -20 35 -50 0 -25 -7 -40 -26 -55 -27
-21 -24 -42 10 -71 19 -15 21 -30 4 -30 -7 1 -28 21 -46 46 -18 24 -37 42 -43
39 -5 -4 -9 -24 -9 -46 0 -21 -4 -39 -10 -39 -6 0 -10 43 -10 110 l0 110 30 0
c17 0 46 -7 65 -14z m2250 -78 l32 -82 33 87 c18 48 35 85 38 83 2 -3 15 -52
27 -111 17 -78 20 -105 11 -105 -8 0 -18 28 -26 70 -7 39 -16 70 -19 70 -3 0
-19 -35 -35 -77 l-29 -77 -30 77 c-33 85 -38 85 -57 -5 -6 -32 -16 -58 -21
-58 -5 0 -9 6 -9 12 0 25 44 207 49 203 3 -3 19 -42 36 -87z"/>
<path d="M2960 4055 l0 -165 718 2 717 3 2 163 2 162 -719 0 -720 0 0 -165z"/>
<path d="M880 273 c-36 -13 -60 -47 -60 -82 1 -60 46 -98 106 -87 89 17 85
151 -6 170 -14 3 -32 2 -40 -1z"/>
<path d="M1773 268 c-12 -6 -29 -26 -38 -44 -14 -29 -14 -37 -1 -68 26 -63 89
-75 137 -27 46 46 37 106 -21 136 -33 17 -46 18 -77 3z"/>
</g>
</svg>
