<?xml version="1.0" standalone="no"?>
<!DOCTYPE svg PUBLIC "-//W3C//DTD SVG 20010904//EN"
 "http://www.w3.org/TR/2001/REC-SVG-20010904/DTD/svg10.dtd">
<svg version="1.0" xmlns="http://www.w3.org/2000/svg"
 width="500.000000pt" height="500.000000pt" viewBox="0 0 500.000000 500.000000"
 preserveAspectRatio="xMidYMid meet">
<metadata>
Created by potrace 1.15, written by Peter Selinger 2001-2017
</metadata>
<g transform="translate(0.000000,500.000000) scale(0.100000,-0.100000)"
fill="#000000" stroke="none">
<path d="M30 4975 c0 -16 6 -25 15 -25 14 0 14 -3 0 -30 -8 -16 -15 -38 -15
-48 0 -11 -7 -25 -15 -32 -18 -15 -20 -61 -2 -79 10 -11 9 -14 -1 -18 -15 -6
-16 -96 -1 -126 9 -16 9 -22 0 -25 -16 -5 -15 -169 2 -175 9 -4 9 -6 0 -6 -9
-1 -13 -25 -13 -85 l0 -83 51 -7 c43 -6 49 -9 35 -19 -8 -7 -17 -22 -19 -34
-2 -12 -7 -26 -11 -30 -5 -5 -6 9 -2 30 7 36 6 37 -24 37 l-30 0 0 -84 c0 -58
4 -86 13 -90 9 -5 9 -7 -1 -12 -16 -7 -16 -81 1 -87 9 -4 9 -6 0 -6 -7 -1 -13
-5 -13 -11 0 -6 18 -7 45 -3 32 4 45 2 45 -6 0 -7 -8 -11 -17 -10 -10 1 -30 1
-45 0 -26 -1 -28 -4 -28 -42 0 -27 4 -38 11 -33 8 5 8 1 0 -14 -14 -26 -15
-274 -1 -252 8 13 10 12 10 -2 0 -10 -4 -18 -10 -18 -6 0 -10 -27 -10 -61 0
-45 3 -58 12 -53 10 6 10 4 1 -7 -15 -15 -17 -45 -3 -54 15 -9 60 6 60 20 0
18 29 47 41 40 5 -4 9 1 9 10 0 10 -5 13 -13 9 -9 -6 -9 -4 1 8 10 13 10 17 0
21 -8 4 -7 6 5 6 9 1 17 5 17 11 0 12 -45 24 -59 15 -17 -10 -13 21 4 35 11 9
12 17 4 31 -6 12 -6 19 0 19 6 0 13 -16 17 -35 5 -27 11 -35 27 -35 20 0 20 1
2 14 -22 16 -14 45 12 47 66 5 73 4 69 -7 -3 -7 3 -19 13 -28 17 -15 19 -15
24 -1 4 8 12 15 19 15 9 0 10 -3 2 -8 -6 -4 -14 -19 -18 -34 -3 -16 -11 -28
-17 -28 -8 0 -7 5 1 15 7 9 8 15 2 15 -11 0 -26 -29 -23 -47 1 -6 -3 -14 -9
-18 -6 -3 -10 4 -10 17 0 17 -2 20 -9 9 -5 -8 -7 -21 -3 -29 4 -11 1 -14 -11
-9 -8 3 -20 0 -25 -6 -14 -18 -23 -49 -13 -42 5 3 21 1 34 -4 24 -9 25 -8 22
19 -4 26 -1 29 20 28 13 -1 26 -10 28 -19 4 -13 0 -16 -14 -14 -11 2 -17 0
-14 -6 4 -5 -8 -17 -24 -27 -17 -9 -29 -23 -26 -29 2 -8 -4 -13 -16 -13 -15 0
-19 5 -15 15 3 8 0 15 -7 16 -36 3 -64 -4 -78 -21 -12 -14 -19 -16 -28 -7 -8
8 -10 0 -8 -30 2 -39 3 -40 32 -36 41 7 46 8 79 22 33 13 118 24 193 23 43 -1
53 3 58 19 10 29 49 33 139 14 117 -24 156 -27 156 -12 0 9 -13 11 -42 9 -35
-3 -41 -2 -31 9 7 7 29 13 49 13 21 1 39 6 41 11 2 6 -18 9 -46 7 -27 -2 -58
1 -70 7 -12 7 -21 8 -21 3 0 -5 -29 -9 -65 -8 -36 1 -65 -3 -65 -7 0 -5 -5 -5
-10 -2 -6 4 -16 2 -23 -3 -17 -14 -56 -19 -56 -7 0 6 -10 13 -23 17 -23 6 -23
6 -1 7 15 1 21 6 17 15 -3 8 0 17 7 22 7 4 15 2 17 -4 5 -17 22 -15 22 3 0 8
-6 15 -14 15 -8 0 -18 5 -21 10 -4 7 2 9 18 5 14 -4 28 -2 31 4 4 6 12 11 18
11 6 0 4 -8 -5 -18 -31 -34 -17 -70 23 -57 11 4 17 12 13 21 -6 16 15 17 89 5
46 -7 47 -7 46 16 -2 22 -28 34 -28 13 0 -5 -11 -10 -24 -10 -18 0 -25 6 -28
23 -2 17 -9 22 -30 21 -15 -1 -29 5 -33 14 -4 11 0 13 17 8 18 -5 119 -24 147
-28 22 -2 30 4 24 19 -5 12 -2 15 9 11 19 -8 43 6 34 20 -7 11 -46 4 -46 -8 0
-14 -32 -21 -46 -9 -8 7 -19 7 -31 1 -24 -13 -43 -4 -43 19 0 16 3 18 19 9 28
-14 39 -12 18 4 -15 12 -15 14 -3 19 9 4 18 2 21 -2 8 -14 44 -1 39 14 -6 14
53 27 62 13 3 -4 -1 -8 -8 -8 -9 -1 -9 -3 2 -9 20 -12 131 -1 124 11 -4 6 -28
8 -58 4 -38 -5 -47 -3 -33 4 18 12 24 40 7 40 -5 0 -10 -7 -10 -16 0 -12 -5
-14 -17 -8 -10 4 -45 8 -78 10 -33 1 -89 7 -125 13 -36 6 -69 11 -73 11 -5 0
-6 3 -3 8 2 4 -2 16 -10 27 -13 17 -16 18 -24 5 -6 -9 -6 -16 0 -18 6 -2 10
-11 10 -20 0 -13 -3 -12 -15 5 -19 26 -65 34 -82 13 -11 -12 -13 -8 -11 23 1
25 9 44 21 52 11 7 17 18 13 23 -6 9 21 72 30 72 3 0 2 -6 -1 -12 -4 -7 1 -4
9 6 14 17 16 17 16 3 0 -9 -9 -21 -20 -27 -11 -6 -18 -15 -15 -21 4 -5 11 -7
16 -4 5 4 15 3 22 -2 6 -4 39 -8 72 -8 66 -1 86 -5 98 -20 6 -7 10 -6 13 1 3
6 16 9 30 6 15 -3 29 1 34 8 5 8 14 10 26 5 11 -5 30 -10 43 -11 13 -2 31 -10
40 -19 15 -15 14 -15 -4 -9 -18 7 -19 6 -6 -10 10 -12 22 -15 39 -11 23 6 24
4 20 -31 -3 -29 -2 -33 7 -20 7 9 20 16 29 16 9 0 16 5 16 10 0 6 -5 10 -11
10 -5 0 -7 5 -4 10 10 16 21 12 31 -11 10 -21 10 -21 22 5 11 25 11 26 -26 27
-20 1 -40 1 -44 0 -5 0 -8 4 -8 9 0 6 6 10 13 10 11 0 -7 13 -60 41 -13 7 -23
16 -23 21 0 5 -4 7 -8 4 -11 -7 -91 14 -126 34 -16 9 -34 25 -40 35 -6 11 -15
23 -19 26 -5 3 -2 9 7 12 23 9 20 23 -6 32 -79 26 -121 35 -183 40 -96 9 -157
26 -150 43 3 8 5 18 5 23 0 5 9 9 20 9 13 0 20 7 20 20 0 20 11 38 38 63 7 7
22 20 33 30 23 20 25 47 4 47 -14 0 -19 -11 -16 -37 1 -6 -4 -15 -10 -19 -9
-5 -10 -2 -6 10 6 14 3 17 -8 12 -9 -3 -13 -2 -10 4 12 20 -12 9 -35 -15 -12
-13 -28 -23 -34 -22 -6 1 -11 -14 -12 -36 -1 -42 -16 -63 -36 -51 -7 5 -22 8
-33 7 -13 -2 -10 1 7 8 26 10 32 23 31 66 0 6 24 24 54 38 44 22 52 29 42 41
-9 11 -8 18 1 29 10 12 10 19 2 27 -14 14 -62 -8 -62 -29 0 -7 -8 -13 -17 -12
-25 1 -71 17 -54 18 11 1 11 4 0 18 -13 15 -11 16 18 10 18 -3 35 -2 38 3 4 6
10 8 15 5 13 -8 40 6 40 21 0 8 6 14 13 14 7 0 8 3 2 8 -5 4 -11 16 -13 27 -2
15 0 17 6 6 6 -9 17 -11 33 -6 22 7 23 7 9 -10 -14 -17 -13 -18 3 -12 11 4 30
10 43 13 25 7 32 29 12 37 -13 5 11 30 72 79 20 16 22 21 10 29 -13 8 -13 10
0 19 8 5 27 10 42 10 20 0 26 4 22 15 -4 9 -19 15 -36 15 -19 0 -27 -4 -22
-11 8 -13 -35 -3 -51 12 -5 5 -18 9 -30 10 -20 0 -20 0 0 9 19 9 19 9 -3 16
-20 6 -23 12 -20 47 3 36 6 41 40 53 48 16 128 25 128 13 0 -5 -7 -12 -15 -15
-23 -9 -18 -21 13 -27 33 -6 39 -2 22 18 -8 10 -9 15 -1 15 12 0 10 34 -3 47
-4 4 -12 1 -17 -7 -9 -12 -10 -12 -5 3 8 25 -3 47 -25 47 -11 0 -44 -18 -74
-40 -83 -62 -114 -69 -106 -26 1 4 -11 5 -26 1 -27 -6 -27 -6 -10 13 10 11 14
22 9 23 -5 2 -12 13 -16 24 -5 19 -2 20 52 20 49 0 57 3 56 18 -2 15 4 18 30
15 17 -2 29 -7 28 -12 -6 -15 28 -30 41 -17 7 7 6 16 -5 28 -8 10 -18 30 -22
46 -5 20 -12 27 -31 27 -13 0 -28 6 -32 13 -4 8 -16 16 -25 20 -11 4 -15 13
-11 26 5 19 1 21 -37 21 -41 0 -42 0 -35 -30 7 -30 -7 -60 -26 -60 -5 0 -14
20 -20 45 l-11 45 -54 0 c-51 0 -54 -1 -54 -25z"/>
<path d="M2279 4205 c-366 -59 -685 -243 -909 -522 -166 -206 -276 -457 -310
-710 -17 -127 -8 -379 18 -503 62 -286 187 -515 397 -725 134 -134 225 -200
390 -280 212 -103 381 -140 640 -140 151 0 197 4 284 23 292 65 526 192 732
396 205 204 339 451 401 739 29 135 31 393 4 542 -104 579 -551 1043 -1124
1165 -128 28 -399 36 -523 15z m297 -311 c25 -294 99 -477 340 -834 204 -304
259 -411 300 -583 24 -103 22 -288 -4 -388 -40 -151 -140 -310 -256 -408 -280
-236 -638 -239 -918 -9 -108 89 -216 269 -255 423 -25 103 -23 318 6 453 75
356 290 809 614 1297 101 152 136 197 151 192 6 -2 15 -58 22 -143z"/>
<path d="M2456 3857 c-345 -495 -592 -1035 -647 -1415 -14 -101 -7 -275 15
-357 65 -241 264 -455 484 -517 79 -23 214 -30 295 -17 211 34 427 205 521
411 88 192 96 399 25 613 -41 121 -85 200 -266 468 -247 368 -292 478 -351
867 l-7 45 -69 -98z m-33 -475 c23 -25 43 -79 51 -135 10 -65 -10 -72 -67 -21
-87 78 -108 128 -65 158 30 21 61 20 81 -2z m189 -324 c256 -84 424 -286 458
-551 10 -85 -2 -207 -30 -278 -77 -204 -272 -331 -485 -316 -87 6 -150 25
-196 58 -48 34 -32 44 69 46 158 4 263 38 343 110 60 54 82 104 87 199 7 138
-42 239 -140 288 -61 30 -114 33 -187 9 -28 -9 -54 -13 -57 -10 -13 12 19 67
60 105 35 32 89 60 153 77 22 7 0 49 -52 101 -58 58 -143 102 -260 134 -109
31 -127 38 -119 51 5 8 48 10 143 7 109 -4 151 -10 213 -30z m-269 -306 c55
-53 81 -92 70 -103 -6 -6 -33 -4 -74 4 -112 24 -155 59 -129 106 27 51 75 49
133 -7z m35 -203 c59 -12 157 -68 157 -89 0 -11 -18 -17 -70 -22 -150 -13
-271 -101 -290 -211 l-7 -37 50 25 c62 31 133 33 180 5 17 -11 32 -26 32 -35
0 -8 -21 -26 -47 -39 -122 -62 -163 -176 -112 -312 28 -73 79 -123 162 -159
73 -30 87 -57 34 -63 -41 -5 -180 25 -240 52 -117 52 -220 170 -268 306 -31
90 -32 248 -1 333 48 132 133 212 257 243 64 16 102 17 163 3z"/>
<path d="M2538 3009 c96 -48 175 -126 192 -190 13 -47 8 -59 -28 -59 -36 0
-122 -41 -150 -73 l-24 -25 41 10 c57 15 119 3 181 -35 176 -106 201 -384 50
-535 -70 -70 -166 -108 -304 -121 l-71 -7 44 -13 c143 -41 324 10 437 123 195
196 167 578 -58 798 -82 80 -222 146 -343 162 l-50 7 83 -42z"/>
<path d="M2203 2506 c-144 -47 -233 -187 -233 -366 0 -218 135 -402 341 -463
l45 -14 -44 44 c-80 81 -119 212 -92 312 13 50 84 132 130 151 41 17 28 30
-31 30 -52 0 -98 -18 -137 -53 -30 -28 -44 -12 -44 52 1 126 89 218 257 266
l59 17 -30 16 c-39 21 -168 26 -221 8z"/>
<path d="M4205 4138 c-105 -8 -214 -27 -280 -47 -28 -9 -28 -10 -9 -16 12 -4
27 -18 33 -31 6 -13 15 -24 21 -24 5 0 10 -7 10 -15 0 -8 5 -15 10 -15 6 0 10
5 10 10 0 6 9 10 20 10 11 0 20 6 20 13 0 8 7 14 15 15 8 1 22 3 30 4 8 1 12
5 9 10 -3 5 6 6 21 2 25 -6 26 -5 16 13 -9 17 -6 22 15 32 31 14 35 14 32 -1
-2 -7 15 -12 49 -12 46 -1 52 1 47 17 -4 14 1 17 36 17 23 0 50 -5 61 -10 14
-8 19 -7 19 1 0 6 6 9 13 6 19 -7 41 8 33 22 -8 12 -69 12 -231 -1z"/>
<path d="M4200 4012 c0 -5 7 -15 15 -22 17 -15 20 -40 4 -40 -6 0 -20 11 -31
25 -11 14 -24 25 -31 25 -6 0 0 -10 12 -22 l24 -21 -44 -18 c-53 -22 -74 -23
-91 -6 -7 7 -22 16 -33 20 -17 6 -17 4 3 -9 12 -9 22 -23 22 -31 0 -12 15 -13
88 -8 48 3 128 7 177 9 142 4 139 4 125 21 -10 12 -10 15 1 16 38 2 -54 19
-117 21 -61 1 -78 6 -99 25 -14 13 -25 20 -25 15z"/>
<path d="M4641 3593 c-13 -13 -34 -23 -47 -23 -13 0 -26 -4 -29 -10 -3 -5 -15
-10 -26 -10 -10 0 -19 -5 -19 -11 0 -7 10 -9 25 -5 14 4 34 2 45 -4 12 -7 21
-7 25 0 3 5 26 10 51 10 32 0 44 4 44 15 0 13 5 12 38 -3 46 -21 53 -31 39
-54 -8 -11 -24 -18 -44 -18 -35 0 -45 15 -15 23 13 4 11 5 -5 6 -13 0 -23 -4
-23 -10 0 -6 -7 -9 -14 -6 -10 4 -13 1 -9 -9 4 -10 -2 -14 -20 -14 -25 0 -52
22 -40 33 3 4 1 7 -5 7 -7 0 -12 -7 -12 -15 0 -8 -4 -15 -10 -15 -5 0 -10 5
-10 10 0 6 -5 10 -11 10 -5 0 -7 -4 -4 -10 4 -6 -6 -10 -22 -10 -20 0 -24 -3
-14 -9 11 -7 10 -10 -5 -14 -16 -4 -16 -5 -2 -6 11 -1 15 -6 12 -16 -4 -9 0
-15 10 -15 10 0 13 6 10 15 -7 16 -2 17 80 16 40 0 54 -5 71 -26 22 -24 42
-35 30 -15 -3 6 -1 10 4 10 6 0 11 4 11 9 0 5 -10 7 -21 4 -15 -4 -20 -2 -17
7 7 21 48 20 48 -1 0 -10 10 -19 25 -23 30 -8 77 3 69 15 -8 14 6 10 22 -6 20
-19 10 -35 -22 -35 -13 0 -24 -4 -24 -10 0 -5 -19 -11 -42 -11 l-43 -1 40 -8
c36 -7 83 -5 113 5 6 2 12 0 12 -5 0 -6 21 -9 48 -8 l47 1 -42 4 c-30 3 -46
10 -53 23 -9 17 -7 20 14 18 14 -1 22 -7 19 -15 -3 -7 3 -11 17 -10 15 1 20 6
17 19 -3 11 0 18 9 18 9 0 14 11 14 28 0 23 -6 30 -33 40 -48 17 -107 16 -107
-3 0 -9 -6 -12 -15 -9 -18 7 -20 31 -2 37 6 2 4 3 -5 2 -26 -4 -42 20 -23 35
11 9 22 9 46 1 40 -14 42 -14 33 0 -5 8 -1 8 14 0 11 -6 27 -8 35 -5 8 3 18 1
22 -5 10 -17 23 -13 30 8 10 32 -26 58 -87 66 -29 3 -96 7 -148 9 -88 2 -97 1
-119 -21z"/>
<path d="M0 3176 c0 -41 2 -45 30 -51 16 -4 34 -4 39 -1 5 4 13 2 16 -4 4 -7
28 -8 66 -4 59 7 95 -1 186 -42 17 -8 51 -14 75 -15 52 -1 87 -12 70 -23 -7
-4 -22 -4 -33 -1 -13 4 -19 3 -15 -3 3 -5 -4 -18 -15 -28 -11 -10 -17 -25 -14
-33 3 -10 -1 -8 -10 4 -16 20 -65 29 -65 12 0 -4 -3 -6 -8 -3 -4 2 -16 -3 -27
-11 -17 -13 -17 -15 -2 -9 11 3 16 2 12 -5 -4 -5 -1 -17 6 -26 23 -26 89 -64
101 -57 7 5 8 3 3 -6 -6 -10 -2 -11 17 -7 17 5 30 2 38 -8 7 -8 21 -15 31 -15
11 0 28 -9 39 -20 11 -11 22 -20 24 -20 2 0 7 19 11 41 5 30 3 44 -6 50 -8 5
-9 9 -3 9 7 0 16 43 24 107 7 58 16 119 21 135 8 29 7 29 -24 23 -18 -4 -55
-15 -84 -24 -71 -24 -296 -18 -328 9 -8 7 -22 10 -30 6 -8 -3 -15 -1 -15 3 0
9 -67 44 -107 56 -21 6 -23 3 -23 -39z"/>
<path d="M4875 3024 c-11 -12 -25 -14 -51 -9 -22 4 -34 3 -30 -3 4 -6 -28 -11
-81 -12 -49 0 -109 -2 -135 -4 -26 -2 -45 0 -43 4 3 4 -6 7 -20 6 -14 0 -25
-4 -25 -7 0 -3 -17 -4 -37 -2 l-38 4 1 -237 c2 -187 5 -238 15 -245 19 -12 27
-11 35 3 4 6 3 8 -4 4 -6 -3 -13 -2 -16 3 -3 5 3 11 14 14 11 3 20 2 20 -3 0
-13 44 -20 51 -8 5 7 40 9 108 6 70 -3 101 -2 98 6 -2 6 -21 9 -43 8 -21 -1
-46 3 -54 9 -11 8 -7 9 21 5 52 -9 58 7 7 20 l-43 12 37 1 c20 1 39 5 42 10 3
5 25 19 47 31 l42 21 -27 -33 c-14 -18 -31 -38 -36 -45 -14 -17 7 -28 25 -13
16 13 75 4 75 -11 0 -5 11 -9 24 -9 13 0 26 -5 28 -12 3 -7 20 -12 41 -11 32
1 36 -1 27 -17 -6 -11 -17 -16 -29 -13 -10 3 -22 0 -25 -6 -4 -6 -1 -9 7 -6 7
3 27 -2 43 -11 l29 -16 -28 7 c-20 4 -27 2 -22 -5 4 -6 17 -10 28 -8 12 1 28
-1 36 -6 7 -5 3 5 -10 23 -19 25 -21 35 -12 49 6 9 16 16 22 14 8 -1 11 71 11
244 l0 246 -32 -2 c-64 -4 -84 -1 -68 10 9 6 10 10 3 10 -6 0 -19 -7 -28 -16z"/>
<path d="M542 2704 c-12 -8 -29 -28 -37 -44 -8 -16 -34 -37 -62 -51 -27 -13
-57 -31 -68 -42 -11 -10 -29 -17 -42 -14 -12 2 -24 0 -26 -6 -1 -5 -26 -12
-55 -15 -45 -4 -51 -7 -40 -20 11 -13 10 -14 -11 -7 -13 4 -47 7 -77 6 -30 0
-54 3 -54 8 0 4 -16 8 -35 8 l-35 0 0 -1264 0 -1263 2500 0 2500 0 0 254 0
255 -22 4 -23 4 23 2 c18 1 22 7 22 31 0 17 -5 30 -12 30 -9 0 -9 3 0 12 7 7
12 24 12 39 0 27 -19 39 -65 39 -11 0 -39 8 -63 17 -35 15 -42 22 -41 43 1 14
1 43 1 66 l-2 41 -171 1 c-94 1 -176 5 -182 11 -11 8 -97 32 -170 46 -16 3
-25 10 -21 16 3 6 17 8 29 5 13 -3 26 -2 30 3 9 15 -27 18 -60 5 -16 -7 -43
-10 -60 -8 -16 2 -49 6 -71 8 -23 2 -47 7 -54 11 -6 4 -34 9 -61 10 -28 2 -66
9 -85 15 -18 6 -42 10 -51 7 -10 -2 1 -8 25 -12 23 -4 45 -12 48 -16 3 -5 22
-9 42 -9 29 0 34 -3 22 -11 -13 -10 -13 -10 0 -6 9 3 47 -2 85 -10 39 -7 99
-18 135 -22 36 -5 85 -14 110 -20 25 -6 56 -12 70 -14 55 -6 -362 -14 -460 -8
l-105 6 53 13 c28 8 52 18 52 23 0 10 4 10 -83 13 -38 1 -70 -2 -73 -6 -6 -9
-107 -4 -124 7 -7 4 -36 7 -64 7 -37 -1 -58 4 -76 17 -35 28 -18 37 27 15 62
-30 83 -26 44 8 -30 26 -53 35 -101 42 -40 6 -43 5 -28 -7 10 -8 15 -17 12
-20 -3 -3 -17 5 -30 18 -13 13 -31 22 -38 19 -8 -3 -40 0 -71 6 -31 6 -64 9
-73 5 -9 -4 -28 -8 -42 -10 -14 -1 -70 -19 -125 -40 -55 -20 -109 -39 -120
-41 -100 -19 -102 -20 -74 -50 l22 -24 -36 0 c-20 0 -37 4 -37 8 0 5 -11 14
-25 20 -32 15 -38 15 -29 0 5 -7 0 -9 -14 -6 -12 4 -20 1 -19 -4 3 -14 -52
-30 -81 -23 -12 3 -102 8 -200 10 -97 3 -189 8 -204 11 -14 3 -29 0 -33 -5 -3
-6 -13 -11 -21 -11 -8 0 -12 4 -9 10 6 10 0 12 -108 29 -37 7 -120 27 -185 45
-705 203 -1245 811 -1362 1534 -10 59 -15 72 -30 72 -11 0 -23 -6 -27 -14 -9
-16 -83 -39 -83 -26 0 5 9 14 20 20 15 8 20 8 20 -2 0 -8 3 -9 8 -3 4 6 22 20
41 32 34 21 34 22 32 89 -3 87 -9 99 -39 78z m73 -1424 c19 -16 19 -34 0 -26
-10 3 -15 -1 -15 -13 0 -26 -42 -41 -108 -40 -31 1 -47 4 -35 6 21 4 41 33 23
33 -6 0 -10 8 -10 18 0 13 -9 17 -42 17 -24 0 -43 -5 -45 -12 -3 -7 0 -13 7
-13 6 0 8 -4 5 -10 -12 -19 -35 -10 -41 15 -6 24 -34 36 -34 14 0 -5 -4 -7
-10 -4 -9 6 8 34 20 32 3 0 12 3 20 6 49 21 231 5 265 -23z m-51 -738 c5 -28
12 -52 16 -52 4 0 12 21 16 48 8 41 12 47 36 50 23 3 28 -2 37 -35 6 -21 11
-46 11 -56 0 -37 18 -5 25 43 7 52 17 65 40 57 11 -5 9 -21 -9 -89 -21 -75
-25 -83 -49 -86 -28 -3 -27 -5 -46 83 l-8 40 -13 -62 c-12 -59 -14 -63 -40
-63 -26 0 -29 4 -48 82 -22 86 -21 101 6 96 12 -2 20 -19 26 -56z m310 50 c3
-5 18 -45 35 -90 l30 -82 -24 0 c-16 0 -25 7 -29 25 -5 19 -13 25 -35 25 -22
0 -30 -6 -35 -25 -4 -16 -13 -25 -26 -25 -24 0 -24 6 -7 51 8 19 22 55 31 82
12 33 23 47 36 47 10 0 21 -4 24 -8z m376 -12 c0 -17 -7 -20 -40 -20 -33 0
-40 -3 -40 -20 0 -17 7 -20 40 -20 29 0 40 -4 40 -15 0 -11 -11 -15 -40 -15
-33 0 -40 -3 -40 -20 0 -17 7 -20 45 -20 33 0 45 -4 45 -15 0 -12 -14 -15 -65
-15 l-65 0 0 90 0 90 60 0 c53 0 60 -2 60 -20z m167 -2 c15 -12 17 -50 3 -64
-6 -6 -6 -22 0 -44 14 -47 13 -50 -10 -50 -13 0 -22 9 -26 28 -13 53 -54 59
-54 7 0 -28 -4 -35 -20 -35 -18 0 -20 7 -20 83 0 46 3 87 8 91 9 10 103 -2
119 -16z m161 9 c6 -6 17 -37 24 -67 l15 -55 19 65 c17 58 23 65 47 68 l27 3
0 -90 c0 -84 -1 -91 -20 -91 -17 0 -20 7 -21 48 l0 47 -15 -47 c-12 -39 -19
-48 -38 -48 -19 0 -26 9 -38 53 l-16 52 -1 -52 c-1 -46 -4 -53 -21 -53 -18 0
-20 7 -20 83 0 46 3 87 7 90 11 11 40 8 51 -6z m301 -2 c33 -17 41 -33 41 -84
0 -49 -36 -85 -85 -85 -51 0 -85 36 -85 89 0 77 61 115 129 80z m156 -44 l30
-53 5 53 c4 41 9 55 23 57 15 3 17 -6 17 -87 0 -90 0 -91 -24 -91 -19 0 -31
12 -55 53 l-31 52 0 -52 c0 -46 -3 -53 -20 -53 -19 0 -20 7 -20 91 0 88 1 90
22 87 15 -2 32 -21 53 -57z m506 30 c74 -74 -8 -194 -100 -147 -31 17 -44 43
-43 88 2 81 86 116 143 59z m185 8 c16 -13 18 -51 4 -65 -8 -8 -8 -19 0 -38
15 -40 12 -56 -8 -56 -12 0 -21 11 -27 33 -7 22 -16 32 -30 32 -15 0 -21 -8
-23 -32 -2 -25 -8 -33 -23 -33 -17 0 -19 8 -19 83 0 46 3 87 8 91 10 11 101
-1 118 -15z m186 4 c9 -10 26 -38 39 -63 l24 -45 3 63 c3 53 6 63 20 60 14 -3
17 -18 20 -91 l3 -87 -30 0 c-27 0 -34 7 -60 58 l-30 57 -1 -57 c0 -51 -2 -58
-20 -58 -18 0 -20 7 -20 83 0 46 3 87 7 90 11 12 29 8 45 -10z m284 -4 c19
-16 18 -49 -2 -49 -9 0 -24 10 -33 21 -15 18 -21 20 -39 10 -48 -26 -36 -115
15 -109 28 3 45 28 19 28 -9 0 -16 7 -16 15 0 10 11 15 35 15 35 0 35 0 35
-45 0 -40 -2 -45 -22 -44 -13 0 -35 -3 -50 -7 -22 -5 -33 0 -58 24 -42 42 -42
92 0 134 26 26 36 30 66 25 20 -3 42 -11 50 -18z m224 1 c11 -11 20 -24 20
-30 0 -15 -31 -12 -51 6 -18 16 -39 12 -39 -7 0 -6 15 -16 33 -24 43 -18 59
-38 55 -67 -4 -28 -50 -52 -83 -44 -25 6 -55 32 -55 47 0 12 37 12 45 -1 9
-15 55 -12 55 3 0 7 -19 21 -42 32 -33 15 -44 26 -46 47 -6 50 69 77 108 38z
m318 4 c12 -8 22 -22 22 -30 0 -19 -30 -18 -45 3 -7 9 -17 13 -23 9 -22 -13
-12 -34 17 -41 65 -14 80 -81 23 -104 -45 -19 -102 5 -102 43 0 10 29 7 49 -6
21 -13 56 -4 46 12 -4 6 -24 18 -45 26 -53 21 -62 70 -17 92 31 15 49 14 75
-4z m350 -6 c3 -15 -4 -18 -42 -18 -39 0 -46 -3 -46 -20 0 -17 7 -20 45 -20
33 0 45 -4 45 -15 0 -11 -12 -15 -45 -15 -38 0 -45 -3 -45 -20 0 -17 7 -20 45
-20 33 0 45 -4 45 -15 0 -12 -14 -15 -65 -15 l-65 0 0 83 c0 46 3 87 7 91 4 4
32 6 63 4 43 -2 56 -7 58 -20z m117 -46 l21 -64 19 64 c18 55 23 63 45 63 25
0 25 -2 28 -87 3 -83 2 -88 -18 -88 -17 0 -20 7 -21 48 l-1 47 -16 -47 c-12
-38 -20 -48 -37 -48 -17 0 -25 10 -37 48 l-16 47 -1 -47 c-1 -41 -4 -48 -21
-48 -18 0 -20 7 -20 83 0 46 3 87 7 91 4 4 16 6 28 4 15 -2 25 -19 40 -66z"/>
</g>
</svg>
