<?xml version="1.0" standalone="no"?>
<!DOCTYPE svg PUBLIC "-//W3C//DTD SVG 20010904//EN"
 "http://www.w3.org/TR/2001/REC-SVG-20010904/DTD/svg10.dtd">
<svg version="1.0" xmlns="http://www.w3.org/2000/svg"
 width="500.000000pt" height="500.000000pt" viewBox="0 0 500.000000 500.000000"
 preserveAspectRatio="xMidYMid meet">
<metadata>
Created by potrace 1.15, written by Peter Selinger 2001-2017
</metadata>
<g transform="translate(0.000000,500.000000) scale(0.100000,-0.100000)"
fill="#000000" stroke="none">
<path d="M0 2500 l0 -2500 2500 0 2500 0 0 2500 0 2500 -2500 0 -2500 0 0
-2500z m2783 2144 c479 -69 919 -292 1261 -639 333 -339 546 -779 612 -1265
19 -141 18 -430 -2 -572 -53 -390 -216 -766 -464 -1078 -79 -99 -278 -296
-365 -362 -276 -209 -579 -348 -916 -419 -128 -27 -169 -31 -365 -36 -141 -4
-258 -1 -325 6 -896 103 -1650 760 -1874 1634 -56 220 -68 335 -62 617 4 216
8 260 31 369 131 614 500 1133 1032 1453 264 159 565 261 889 301 92 12 445 6
548 -9z"/>
<path d="M2270 4339 c-640 -72 -1199 -462 -1485 -1037 -318 -638 -242 -1409
194 -1980 296 -387 735 -645 1222 -716 137 -20 402 -21 534 -1 288 44 545 141
777 295 524 349 838 929 838 1548 0 511 -176 956 -519 1314 -172 180 -331 296
-546 399 -322 154 -677 216 -1015 178z m532 -483 c541 -127 942 -538 1059
-1087 30 -137 32 -380 5 -514 -103 -518 -456 -919 -951 -1079 -289 -94 -628
-83 -917 30 -189 75 -346 179 -494 329 -269 272 -407 633 -391 1025 10 260 88
501 235 719 75 113 230 273 339 351 167 118 411 219 608 250 33 5 137 7 230 5
137 -3 191 -8 277 -29z"/>
<path d="M2315 3535 c-224 -41 -390 -129 -556 -294 -117 -118 -180 -209 -236
-346 -110 -271 -96 -601 37 -865 188 -373 585 -603 994 -576 520 33 923 414
988 932 15 115 -1 282 -36 406 -113 388 -431 674 -825 743 -101 18 -270 18
-366 0z m303 -352 c59 -120 134 -277 166 -350 l58 -131 -51 -189 c-27 -103
-59 -231 -71 -283 -11 -52 -23 -103 -26 -113 -11 -35 -28 -10 -41 59 -7 38
-36 167 -65 287 l-52 218 -35 -3 -36 -3 -57 -215 c-32 -118 -64 -246 -72 -283
-25 -118 -34 -108 -75 84 -17 80 -47 208 -67 285 -19 76 -35 144 -36 149 -3
22 224 510 298 642 19 35 39 63 45 63 5 0 58 -98 117 -217z m-104 -605 c3 -13
10 -48 16 -78 5 -30 33 -151 61 -267 l51 -213 34 0 c30 0 34 4 43 38 85 310
150 517 162 517 9 0 31 -51 63 -145 44 -129 50 -157 54 -252 4 -95 2 -117 -21
-191 -63 -199 -219 -346 -405 -378 -170 -30 -374 62 -475 213 -83 126 -118
270 -98 403 12 83 82 309 105 340 19 26 14 42 95 -277 l68 -263 31 -3 c26 -3
34 1 41 20 16 41 130 471 137 516 7 46 30 58 38 20z"/>
<path d="M2368 3093 c-69 -142 -138 -288 -153 -324 l-27 -67 55 -238 c31 -132
57 -248 59 -259 2 -11 27 70 57 180 29 110 60 227 70 260 l17 60 51 3 c42 2
54 -1 61 -15 11 -21 112 -442 112 -466 0 -40 18 -11 33 56 10 39 38 149 63
244 l45 171 -42 99 c-49 116 -241 510 -261 536 -13 17 -26 -6 -140 -240z"/>
<path d="M2871 2485 c-7 -22 -40 -139 -74 -260 l-63 -220 -59 0 -60 0 -60 253
c-33 139 -61 249 -62 245 -4 -17 -124 -469 -129 -485 -4 -15 -17 -18 -64 -18
l-58 0 -63 255 c-35 140 -67 251 -70 247 -14 -15 -70 -207 -81 -278 -16 -104
0 -204 52 -310 145 -299 497 -370 731 -148 177 170 208 394 95 694 l-24 65
-11 -40z"/>
</g>
</svg>
