<?xml version="1.0" standalone="no"?>
<!DOCTYPE svg PUBLIC "-//W3C//DTD SVG 20010904//EN"
 "http://www.w3.org/TR/2001/REC-SVG-20010904/DTD/svg10.dtd">
<svg version="1.0" xmlns="http://www.w3.org/2000/svg"
 width="500.000000pt" height="500.000000pt" viewBox="0 0 500.000000 500.000000"
 preserveAspectRatio="xMidYMid meet">
<metadata>
Created by potrace 1.15, written by Peter Selinger 2001-2017
</metadata>
<g transform="translate(0.000000,500.000000) scale(0.100000,-0.100000)"
fill="#000000" stroke="none">
<path d="M0 2500 l0 -2500 2500 0 2500 0 0 2500 0 2500 -2500 0 -2500 0 0
-2500z m2741 2146 l256 -146 326 0 325 0 162 -279 161 -280 230 -132 229 -132
0 -266 0 -266 186 -323 186 -322 -183 -318 -184 -317 -5 -220 -5 -220 -172
-100 c-95 -55 -180 -107 -189 -117 -9 -9 -106 -171 -215 -360 l-198 -343 -410
-3 -411 -2 -87 -52 c-49 -28 -125 -72 -170 -99 l-81 -48 -172 100 -172 99
-402 0 -401 1 -196 342 -196 342 -207 119 -206 119 0 239 0 239 -170 294 c-93
161 -170 299 -170 305 0 6 74 140 165 297 l165 285 0 293 0 293 254 148 255
148 153 268 153 267 308 1 307 0 257 149 c141 82 259 148 263 147 3 -2 120
-69 261 -150z"/>
<path d="M1980 2898 c0 -12 8 -52 25 -125 3 -14 13 -23 24 -23 14 0 24 14 37
53 l18 52 15 -52 c13 -43 20 -53 37 -53 18 0 23 9 33 63 7 34 14 70 17 80 4
12 0 17 -14 17 -20 0 -32 -25 -32 -67 0 -38 -15 -26 -28 23 -17 61 -41 57 -61
-11 l-15 -50 -9 53 c-8 41 -14 52 -28 52 -11 0 -19 -6 -19 -12z"/>
</g>
</svg>
