<?xml version="1.0" standalone="no"?>
<!DOCTYPE svg PUBLIC "-//W3C//DTD SVG 20010904//EN"
 "http://www.w3.org/TR/2001/REC-SVG-20010904/DTD/svg10.dtd">
<svg version="1.0" xmlns="http://www.w3.org/2000/svg"
 width="500.000000pt" height="500.000000pt" viewBox="0 0 500.000000 500.000000"
 preserveAspectRatio="xMidYMid meet">
<metadata>
Created by potrace 1.15, written by Peter Selinger 2001-2017
</metadata>
<g transform="translate(0.000000,500.000000) scale(0.100000,-0.100000)"
fill="#000000" stroke="none">
<path d="M30 4975 c0 -16 6 -25 15 -25 14 0 14 -3 0 -30 -8 -16 -15 -38 -15
-48 0 -11 -7 -25 -15 -32 -18 -15 -20 -61 -2 -79 10 -11 9 -14 -1 -18 -15 -6
-16 -96 -1 -126 9 -16 9 -22 0 -25 -16 -5 -15 -169 2 -175 9 -4 9 -6 0 -6 -9
-1 -13 -25 -13 -85 l0 -83 51 -7 c43 -6 49 -9 35 -19 -8 -7 -17 -22 -19 -34
-2 -12 -7 -26 -11 -30 -5 -5 -6 9 -2 30 7 36 6 37 -24 37 l-30 0 0 -84 c0 -58
4 -86 13 -90 9 -5 9 -7 -1 -12 -16 -7 -16 -81 1 -87 9 -4 9 -6 0 -6 -7 -1 -13
-5 -13 -11 0 -6 18 -7 45 -3 32 4 45 2 45 -6 0 -7 -8 -11 -17 -10 -10 1 -30 1
-45 0 -26 -1 -28 -4 -28 -42 0 -27 4 -38 11 -33 8 5 8 1 0 -14 -14 -26 -15
-274 -1 -252 8 13 10 12 10 -2 0 -10 -4 -18 -10 -18 -6 0 -10 -27 -10 -61 0
-45 3 -58 12 -53 10 6 10 4 1 -7 -15 -15 -17 -45 -3 -54 15 -9 60 6 60 20 0
18 29 47 41 40 5 -4 9 1 9 10 0 10 -5 13 -13 9 -9 -6 -9 -4 1 8 10 13 10 17 0
21 -8 4 -7 6 5 6 9 1 17 5 17 11 0 12 -45 24 -59 15 -17 -10 -13 21 4 35 11 9
12 17 4 31 -6 12 -6 19 0 19 6 0 13 -16 17 -35 5 -27 11 -35 27 -35 20 0 20 1
2 14 -22 16 -14 45 12 47 66 5 73 4 69 -7 -3 -7 3 -19 13 -28 17 -15 19 -15
24 -1 4 8 12 15 19 15 9 0 10 -3 2 -8 -6 -4 -14 -19 -18 -34 -3 -16 -11 -28
-17 -28 -8 0 -7 5 1 15 7 9 8 15 2 15 -11 0 -26 -29 -23 -47 1 -6 -3 -14 -9
-18 -6 -3 -10 4 -10 17 0 17 -2 20 -9 9 -5 -8 -7 -21 -3 -29 4 -11 1 -14 -11
-9 -8 3 -20 0 -25 -6 -14 -18 -23 -49 -13 -42 5 3 21 1 34 -4 24 -9 25 -8 22
19 -4 26 -1 29 20 28 13 -1 26 -10 28 -19 4 -13 0 -16 -14 -14 -11 2 -17 0
-14 -6 4 -5 -8 -17 -24 -27 -17 -9 -29 -23 -26 -29 2 -8 -4 -13 -16 -13 -15 0
-19 5 -15 15 3 8 0 15 -7 16 -36 3 -64 -4 -78 -21 -12 -14 -19 -16 -28 -7 -8
8 -10 0 -8 -30 2 -39 3 -40 32 -36 41 7 46 8 79 22 33 13 118 24 193 23 42 -1
53 3 58 18 11 34 66 37 183 8 34 -8 42 -15 42 -33 0 -13 -7 -25 -15 -29 -19
-7 -19 -30 0 -49 13 -13 12 -16 -8 -21 -12 -3 -31 -12 -42 -21 -19 -15 -19
-15 12 -11 17 2 37 7 42 11 6 3 11 -2 11 -12 0 -29 -104 -55 -220 -55 -117 0
-177 7 -196 22 -7 7 -21 10 -29 6 -8 -3 -15 -1 -15 3 0 9 -67 44 -108 56 -20
6 -22 3 -22 -39 0 -41 2 -45 30 -51 16 -4 34 -4 39 -1 5 4 13 2 16 -4 4 -7 28
-8 66 -4 59 7 95 -1 186 -42 17 -8 51 -14 75 -15 52 -1 87 -12 70 -23 -7 -4
-22 -4 -33 -1 -13 4 -19 3 -15 -3 3 -5 -4 -18 -15 -28 -11 -10 -17 -25 -14
-33 3 -10 -1 -8 -10 4 -16 20 -65 29 -65 12 0 -4 -3 -6 -8 -3 -4 2 -16 -3 -27
-11 -17 -13 -17 -15 -2 -9 11 3 16 2 12 -5 -4 -5 -1 -17 6 -26 23 -26 89 -64
101 -57 7 5 8 3 3 -6 -6 -10 -3 -12 13 -8 12 4 20 3 18 0 -2 -4 -38 -67 -81
-141 -67 -115 -76 -136 -67 -156 9 -20 8 -24 -11 -29 -12 -3 -37 -6 -56 -6
-30 0 -32 -2 -20 -16 12 -15 11 -16 -10 -9 -13 4 -47 7 -77 6 -30 0 -54 3 -54
8 0 4 -16 8 -35 8 l-35 0 0 -1264 0 -1263 508 1 c279 1 496 5 482 9 -18 6 -4
8 47 9 39 1 75 -4 78 -9 4 -7 146 -10 403 -10 335 1 401 4 420 16 13 8 31 13
40 11 14 -3 12 -6 -8 -15 -23 -10 -21 -11 20 -11 25 1 39 3 33 6 -19 7 -15 23
5 23 33 0 33 13 1 27 -18 7 -30 15 -27 18 7 8 78 -7 73 -15 -3 -5 26 -7 65 -5
54 2 70 -1 70 -11 0 -8 -11 -14 -26 -14 -14 0 -34 -5 -45 -11 -15 -7 -24 -7
-35 2 -9 7 -14 8 -14 1 0 -6 -8 -12 -17 -15 -10 -2 215 -5 499 -5 401 -1 518
1 521 11 4 9 6 9 6 0 1 -7 10 -13 20 -13 15 0 19 6 16 25 -3 28 9 42 21 24 5
-8 9 -8 14 1 5 8 13 9 21 4 8 -5 32 -8 54 -7 21 2 42 -3 46 -9 13 -20 1 -26
-41 -18 -31 6 -40 4 -40 -6 0 -11 18 -14 76 -14 41 0 73 4 70 9 -3 4 6 7 19 5
14 -1 27 2 31 7 3 5 -2 9 -10 9 -9 0 -16 5 -16 11 0 6 7 9 15 5 9 -3 15 0 15
9 0 10 12 15 38 16 20 0 63 2 95 2 49 2 55 0 40 -11 -10 -7 -17 -18 -16 -23 4
-12 -34 -11 -59 2 -15 8 -23 8 -32 -2 -8 -9 -8 -10 1 -5 7 4 18 -2 25 -14 9
-14 23 -20 50 -20 36 0 45 9 39 43 0 4 4 7 9 7 6 0 10 -7 10 -15 0 -9 6 -12
16 -8 9 3 11 9 6 12 -5 3 -12 18 -16 33 -5 22 -3 26 9 22 8 -3 13 -10 10 -14
-3 -5 6 -3 19 3 13 6 21 17 19 24 -7 18 -2 16 37 -12 19 -14 28 -25 20 -25 -7
0 -1 -11 14 -25 17 -15 24 -30 20 -38 -5 -8 -2 -8 9 2 9 7 17 20 17 28 0 7 7
16 15 19 18 7 47 -14 39 -27 -3 -5 -2 -9 3 -8 20 3 34 -2 28 -11 -3 -6 4 -10
16 -10 18 0 19 2 9 15 -18 21 -9 26 26 16 16 -5 23 -10 17 -10 -7 -1 -13 -5
-13 -9 0 -11 84 -10 88 1 1 4 2 15 2 26 0 16 -5 17 -42 11 -42 -8 -68 1 -68
23 0 12 88 2 128 -15 22 -9 24 -12 9 -15 -12 -3 -16 -10 -13 -20 3 -8 6 -17 6
-19 0 -2 216 -4 480 -4 l480 0 0 254 0 255 -22 4 -23 4 23 2 c18 1 22 7 22 31
0 17 -5 30 -12 30 -9 0 -9 3 0 12 7 7 12 24 12 40 0 24 -5 28 -37 33 -21 3
-51 11 -68 17 -18 7 -69 11 -125 10 -128 -3 -137 -3 -195 3 -61 7 -90 -8 -61
-30 11 -8 35 -15 54 -15 19 0 31 -4 27 -10 -12 -19 -73 -11 -88 10 -10 15 -21
19 -38 15 -13 -3 -46 -2 -72 3 -35 7 -47 6 -44 -2 2 -6 17 -11 33 -12 74 -2
80 -4 80 -24 0 -12 -7 -20 -17 -20 -10 0 -25 -3 -35 -7 -12 -4 -15 -3 -10 5 4
7 16 12 27 12 11 0 18 4 14 10 -4 6 -15 6 -32 -1 -18 -7 -30 -6 -37 1 -5 5
-16 10 -23 10 -29 0 38 -83 75 -92 23 -6 32 7 10 15 -7 2 27 7 77 12 82 7 87
8 65 21 -26 14 -21 17 16 15 12 -1 24 5 27 13 4 9 14 16 24 16 17 -1 17 -1 1
-11 -32 -18 -19 -24 55 -24 39 1 79 -4 87 -11 20 -15 109 -38 117 -30 10 10
-1 16 -72 35 -37 11 -77 28 -88 39 l-20 21 29 6 c16 3 37 10 46 16 21 11 48
12 48 2 0 -5 18 -17 40 -27 22 -11 40 -23 40 -27 0 -5 15 -13 33 -18 l32 -9
-30 -2 c-27 -1 -28 -2 -9 -10 34 -13 41 -32 10 -24 -20 5 -26 2 -26 -10 0 -9
-6 -17 -12 -18 -27 -3 -34 -4 -71 -17 -46 -16 -39 -31 14 -31 42 0 70 -22 76
-59 2 -17 -2 -19 -32 -16 -19 2 -33 -1 -30 -5 3 -5 -3 -11 -12 -13 -14 -4 -13
-5 4 -6 15 -1 21 -6 17 -15 -3 -8 -11 -13 -17 -10 -17 6 -41 -12 -33 -25 5 -8
13 -8 27 -1 13 7 25 8 37 1 14 -9 13 -10 -11 -11 -24 0 -27 -3 -22 -20 6 -20
6 -20 -37 -4 -24 10 -48 21 -54 26 -6 4 -24 10 -40 12 -16 2 -47 7 -69 10 -35
6 -38 6 -23 -7 10 -8 15 -16 12 -19 -3 -4 1 -6 8 -5 31 1 48 -4 48 -14 0 -7
-10 -9 -25 -5 -16 4 -25 2 -25 -5 0 -8 -4 -8 -12 -1 -7 5 -24 12 -38 14 -14 2
-24 9 -23 15 3 12 -34 6 -54 -9 -7 -5 -12 -5 -15 1 -1 6 -32 14 -68 18 -35 3
-78 14 -95 24 -16 10 -59 21 -94 25 -57 6 -64 5 -58 -10 8 -20 -3 -21 -29 -1
-16 13 -16 14 -1 9 29 -10 19 16 -10 27 -16 6 -36 15 -45 20 -10 5 -26 9 -36
9 -11 0 -27 9 -37 20 -10 12 -25 18 -32 16 -8 -3 -16 1 -19 9 -4 8 -12 15 -19
15 -7 0 -25 14 -38 30 -17 19 -35 30 -52 30 -14 0 -35 4 -45 10 -10 5 -38 12
-61 14 -81 8 -129 18 -124 26 3 5 -4 6 -15 3 -15 -4 -18 -9 -10 -18 7 -8 7
-15 1 -19 -10 -7 -41 3 -41 13 0 10 48 66 87 102 20 18 81 32 132 30 28 -1 33
2 29 17 -5 16 1 19 36 20 22 1 42 6 44 11 2 6 10 7 18 4 21 -8 17 10 -8 38
-14 16 -19 18 -15 7 3 -10 2 -20 -4 -23 -5 -4 -13 4 -17 16 -6 15 -11 18 -16
11 -4 -7 -16 -12 -27 -12 -11 0 -17 5 -14 10 4 6 11 8 16 5 5 -4 12 0 15 9 3
8 28 20 55 26 27 7 49 16 49 21 0 10 4 10 -83 13 -38 1 -70 -1 -72 -5 -4 -6
-95 -10 -95 -4 0 4 90 157 95 163 2 2 19 -1 37 -6 18 -6 71 -13 117 -17 73 -6
83 -5 78 9 -4 9 1 16 11 19 9 2 1 2 -18 -1 -46 -7 -76 -6 -98 4 -20 9 -18 8
-64 17 -21 5 -38 14 -38 21 0 25 2 26 413 245 78 42 101 50 112 41 8 -7 20
-10 27 -7 8 4 5 8 -10 13 -15 4 -19 10 -13 18 7 8 31 517 31 649 0 13 9 17 38
18 30 2 32 3 10 6 -16 2 -28 9 -28 15 0 10 38 77 203 360 49 83 52 87 80 81
23 -5 29 -3 25 8 -3 8 -12 13 -20 11 -12 -2 -15 6 -14 30 1 26 9 36 46 56 l44
25 -27 -34 c-15 -19 -32 -39 -37 -46 -14 -17 7 -28 25 -13 16 13 75 4 75 -11
0 -5 11 -9 24 -9 13 0 26 -5 28 -12 3 -7 20 -12 41 -11 32 1 36 -1 27 -17 -6
-11 -17 -16 -29 -13 -10 3 -22 0 -25 -6 -4 -6 -1 -9 7 -6 7 3 27 -2 43 -11
l29 -16 -28 7 c-20 4 -27 2 -22 -5 4 -6 17 -10 28 -8 12 1 28 -1 36 -6 7 -5 3
5 -10 23 -19 25 -21 35 -12 49 6 9 16 16 22 15 8 -2 11 70 11 243 l0 246 -32
-2 c-64 -4 -84 -1 -68 10 9 6 10 10 3 10 -6 0 -19 -7 -28 -16 -11 -12 -25 -14
-51 -9 -22 4 -34 3 -30 -3 4 -6 -28 -11 -81 -12 -49 0 -109 -2 -135 -4 -26 -2
-45 0 -43 4 3 4 -6 7 -20 6 -14 0 -25 -5 -25 -11 -1 -5 -9 0 -19 12 -13 15
-17 31 -13 45 5 19 7 20 10 6 2 -10 7 -18 12 -18 5 0 7 7 4 15 -5 11 2 15 27
16 42 2 41 2 59 -6 11 -4 16 0 16 12 0 12 -8 19 -23 19 -13 1 -23 -2 -23 -7 0
-5 -9 -4 -20 3 -16 10 -24 10 -40 0 -11 -6 -22 -12 -25 -12 -11 0 -4 99 8 103
9 3 9 9 -1 26 -12 21 -15 139 -4 169 2 6 18 12 36 11 26 0 28 -2 11 -9 -17 -7
-15 -9 12 -9 21 -1 32 3 30 12 -1 6 4 11 11 9 8 -1 11 2 8 7 -3 5 -28 7 -55 5
l-48 -5 -2 60 c-1 55 1 59 24 65 14 4 23 11 20 15 -3 5 -14 7 -25 4 -28 -7
-27 32 1 47 20 11 20 11 -3 29 -13 9 -112 72 -220 140 -109 67 -198 126 -198
131 0 9 111 20 255 24 142 4 139 4 125 21 -10 12 -10 15 1 16 38 2 -54 19
-117 21 -61 1 -78 6 -99 25 -14 13 -25 20 -25 15 0 -5 7 -15 15 -22 17 -15 20
-40 4 -40 -6 0 -20 11 -31 25 -11 14 -24 25 -31 25 -6 0 0 -10 12 -22 l24 -21
-49 -19 c-26 -11 -57 -17 -68 -14 -11 3 -25 -2 -33 -12 -8 -9 -12 -11 -8 -4 3
6 1 12 -4 12 -6 0 -11 5 -11 11 0 6 7 9 15 5 8 -3 15 -1 15 4 0 6 -12 10 -26
10 -14 0 -23 -4 -19 -10 8 -13 -11 -13 -37 1 -17 9 -18 13 -7 20 10 7 7 8 -9
7 -16 -2 -29 5 -40 21 -16 23 -16 24 4 13 24 -13 35 -7 27 14 -6 16 5 18 26 5
7 -5 10 -14 7 -20 -4 -6 0 -11 8 -11 9 0 16 5 16 10 0 6 9 10 20 10 11 0 20 6
20 13 0 8 7 14 15 15 8 1 22 3 30 4 8 1 12 5 9 10 -3 5 6 6 21 2 25 -6 26 -5
16 13 -9 17 -6 22 15 32 31 14 35 14 31 -1 -1 -7 16 -12 50 -12 46 -1 52 1 47
17 -4 14 1 17 36 17 23 0 50 -5 61 -10 14 -8 19 -7 19 1 0 6 6 9 13 6 22 -8
44 10 30 24 -15 15 -307 -4 -411 -27 -37 -8 -85 -18 -107 -23 -22 -5 -46 -10
-53 -12 -8 -3 -59 77 -135 208 l-122 212 -267 1 -268 0 -248 155 -248 155
-291 -155 -290 -155 -300 0 -300 0 -132 -230 -132 -229 -157 -84 c-260 -139
-296 -157 -301 -149 -4 4 -10 7 -16 7 -58 1 -141 38 -159 70 -6 11 -15 23 -19
26 -5 3 -2 9 7 12 23 9 20 23 -6 32 -79 26 -121 35 -183 40 -96 9 -157 26
-150 43 3 8 5 18 5 23 0 5 9 9 20 9 13 0 20 7 20 20 0 20 11 38 38 63 7 7 22
20 33 30 23 20 25 47 4 47 -14 0 -19 -11 -16 -37 1 -6 -4 -15 -10 -19 -9 -5
-10 -2 -6 10 6 14 3 17 -8 12 -9 -3 -13 -2 -10 4 12 20 -12 9 -35 -15 -12 -13
-28 -23 -34 -22 -6 1 -11 -14 -12 -36 -1 -42 -16 -63 -36 -51 -7 5 -22 8 -33
7 -13 -2 -10 1 7 8 26 10 32 23 31 66 0 6 24 24 54 38 44 22 52 29 42 41 -9
11 -8 18 1 29 10 12 10 19 2 27 -14 14 -62 -8 -62 -29 0 -7 -8 -13 -17 -12
-25 1 -71 17 -54 18 11 1 11 4 0 18 -13 15 -11 16 18 10 18 -3 35 -2 38 3 4 6
10 8 15 5 13 -8 40 6 40 21 0 8 6 14 13 14 7 0 8 3 2 8 -5 4 -11 16 -13 27 -2
15 0 17 6 6 6 -9 17 -11 33 -6 22 7 23 7 9 -10 -14 -17 -13 -18 3 -12 11 4 30
10 43 13 25 7 32 29 12 37 -13 5 11 30 72 79 20 16 22 21 10 29 -13 8 -13 10
0 19 8 5 27 10 42 10 20 0 26 4 22 15 -4 9 -19 15 -36 15 -19 0 -27 -4 -22
-11 8 -13 -35 -3 -51 12 -5 5 -18 9 -30 10 -20 0 -20 0 0 9 19 9 19 9 -3 16
-20 6 -23 12 -20 47 3 36 6 41 40 53 48 16 128 25 128 13 0 -5 -7 -12 -15 -15
-23 -9 -18 -21 13 -27 33 -6 39 -2 22 18 -8 10 -9 15 -1 15 12 0 10 34 -3 47
-4 4 -12 1 -17 -7 -9 -12 -10 -12 -5 3 8 25 -3 47 -25 47 -11 0 -44 -18 -74
-40 -83 -62 -114 -69 -106 -26 1 4 -11 5 -26 1 -27 -6 -27 -6 -10 13 10 11 14
22 9 23 -5 2 -12 13 -16 24 -5 19 -2 20 52 20 49 0 57 3 56 18 -2 15 4 18 30
15 17 -2 29 -7 28 -12 -6 -15 28 -30 41 -17 7 7 6 16 -5 28 -8 10 -18 30 -22
46 -5 20 -12 27 -31 27 -13 0 -28 6 -32 13 -4 8 -16 16 -25 20 -11 4 -15 13
-11 26 5 19 1 21 -37 21 -41 0 -42 0 -35 -30 7 -30 -7 -60 -26 -60 -5 0 -14
20 -20 45 l-11 45 -54 0 c-51 0 -54 -1 -54 -25z m2618 -665 c406 -36 782 -211
1068 -496 567 -567 675 -1430 266 -2119 -138 -232 -377 -466 -627 -613 -154
-91 -384 -172 -584 -206 -123 -21 -400 -21 -536 -1 -614 93 -1140 520 -1358
1105 -83 222 -112 408 -104 670 6 201 23 304 77 470 229 702 881 1186 1615
1199 39 0 121 -4 183 -9z m-2349 -501 c-13 -10 -19 -19 -14 -20 11 -1 24 -4
40 -9 6 -1 37 -3 70 -4 67 -2 86 -6 98 -21 6 -7 10 -6 13 1 3 6 16 9 30 6 15
-3 29 1 34 8 4 7 15 10 24 7 17 -7 21 -58 10 -115 -5 -26 -11 -30 -45 -35 -22
-3 -54 -1 -72 3 -18 5 -53 11 -80 15 -26 3 -45 9 -43 13 2 4 -2 16 -10 27 -13
17 -16 18 -24 5 -6 -9 -6 -16 0 -18 6 -2 10 -11 10 -20 0 -13 -3 -12 -15 5
-19 26 -65 34 -82 13 -11 -12 -13 -8 -11 23 1 25 9 44 21 52 11 7 17 18 13 23
-6 9 21 72 30 72 3 0 2 -6 -1 -12 -3 -7 0 -5 7 5 8 11 14 13 17 6 2 -7 -7 -20
-20 -30z m216 -311 c33 -5 66 -11 73 -11 15 0 17 -83 2 -92 -5 -3 -19 -1 -30
5 -11 6 -20 7 -20 2 0 -5 -29 -9 -65 -8 -36 1 -65 -3 -65 -7 0 -5 -5 -5 -10
-2 -6 4 -16 2 -23 -3 -17 -14 -56 -19 -56 -7 0 6 -10 13 -23 17 -23 6 -23 6
-1 7 15 1 21 6 17 15 -3 8 0 17 7 22 7 4 15 2 17 -4 5 -17 22 -15 22 3 0 8 -6
15 -14 15 -8 0 -18 5 -21 10 -4 7 2 9 18 5 14 -4 28 -2 31 4 4 6 12 11 18 11
6 0 4 -8 -5 -18 -31 -34 -17 -70 23 -57 11 4 17 12 13 21 -6 16 15 17 89 5 46
-7 47 -7 46 16 -2 22 -28 34 -28 13 0 -5 -11 -10 -24 -10 -18 0 -25 6 -28 23
-2 17 -9 22 -30 21 -15 -1 -29 5 -33 14 -4 11 0 13 17 8 13 -4 50 -12 83 -18z
m100 -2218 c19 -16 19 -34 0 -26 -10 3 -15 -1 -15 -13 0 -26 -42 -41 -108 -40
-31 1 -47 4 -35 6 21 4 41 33 23 33 -6 0 -10 8 -10 18 0 13 -9 17 -42 17 -24
0 -43 -5 -45 -12 -3 -7 0 -13 7 -13 6 0 8 -4 5 -10 -12 -19 -35 -10 -41 15 -6
24 -34 36 -34 14 0 -5 -4 -7 -10 -4 -9 6 8 34 20 32 3 0 12 3 20 6 49 21 231
5 265 -23z m683 -589 c9 -5 26 -13 37 -17 62 -23 83 -26 105 -14 16 8 25 8 35
0 13 -11 59 -10 71 2 3 4 17 3 30 -2 15 -6 26 -6 30 1 4 6 11 6 20 -2 15 -12
9 -31 -9 -28 -7 1 -30 -2 -52 -6 -22 -5 -43 -8 -47 -7 -5 1 -8 -5 -8 -13 0 -8
5 -15 11 -15 5 0 8 -4 5 -8 -4 -7 -28 -8 -73 -3 -7 0 -13 8 -13 16 0 9 -9 15
-25 15 -13 0 -33 9 -43 20 -10 11 -26 18 -34 15 -8 -3 -21 1 -28 10 -10 12
-16 13 -27 4 -16 -14 -18 -12 -27 19 -8 24 10 30 42 13z m1125 -435 c9 -13 28
-26 44 -29 15 -3 41 -18 57 -32 16 -14 47 -28 68 -31 21 -4 38 -10 38 -15 0
-5 23 -18 50 -30 52 -22 65 -39 30 -39 -24 0 -27 -15 -4 -24 24 -9 46 -7 39 3
-12 21 13 18 50 -6 27 -17 32 -22 15 -17 -31 9 -32 9 -100 -11 -50 -14 -112
-20 -82 -8 22 9 13 23 -27 39 -24 9 -38 21 -35 28 3 8 -15 21 -46 34 -29 12
-49 26 -45 32 3 5 -16 32 -44 60 -28 27 -45 50 -40 50 6 0 7 5 4 10 -13 22 14
9 28 -14z"/>
<path d="M2355 3573 c-402 -64 -718 -351 -827 -751 -29 -106 -31 -331 -4 -447
180 -775 1123 -1048 1684 -487 68 68 160 202 202 295 118 261 111 577 -20 842
-125 253 -351 442 -625 521 -75 22 -115 27 -235 29 -80 2 -158 1 -175 -2z
m370 -492 c3 -5 1 -12 -4 -15 -5 -4 -21 -26 -34 -51 l-25 -44 37 -3 36 -4 -42
-8 c-37 -7 -44 -13 -59 -50 -34 -85 -64 -180 -63 -205 0 -24 2 -23 42 22 23
27 62 78 87 114 48 71 77 90 105 69 28 -20 11 -61 -35 -92 -34 -22 -40 -32
-40 -60 0 -39 8 -42 41 -15 25 20 94 111 84 111 -3 0 -1 9 5 20 16 30 42 26
34 -5 -5 -22 -3 -25 19 -25 38 0 40 -12 12 -74 -34 -78 -12 -73 49 10 27 36
51 63 53 60 10 -10 -46 -93 -86 -129 -64 -58 -99 -25 -62 59 25 56 25 54 2 54
-11 0 -37 -22 -61 -52 -59 -75 -75 -84 -106 -63 -22 14 -25 22 -19 51 3 19 2
34 -2 34 -4 -1 -28 -30 -53 -66 -48 -69 -70 -87 -94 -78 -19 7 -24 29 -15 78
l7 39 -25 -31 c-13 -18 -33 -32 -44 -32 -24 0 -42 41 -33 76 9 34 1 30 -30
-17 -48 -72 -94 -37 -67 52 23 77 77 113 101 68 9 -16 14 -18 25 -9 21 18 38
2 30 -29 -29 -120 -23 -135 25 -65 27 38 80 151 80 169 0 3 -24 6 -52 6 l-53
2 58 11 c54 10 59 14 83 56 14 25 30 51 36 57 12 15 44 17 53 4z m-617 -50 c2
-19 -4 -75 -12 -126 -9 -51 -16 -96 -16 -100 0 -5 19 18 41 51 84 120 112 152
126 147 10 -4 13 -14 8 -32 -15 -63 -34 -168 -34 -194 -1 -23 9 -9 46 60 41
78 95 163 136 216 15 18 37 23 37 8 0 -5 -15 -25 -32 -45 -41 -46 -126 -186
-164 -271 -32 -71 -59 -85 -70 -38 -7 25 6 140 22 203 8 33 -61 -61 -113 -152
-23 -41 -45 -68 -55 -68 -26 0 -28 13 -12 66 26 84 55 257 45 267 -15 15 7 49
27 45 11 -2 18 -15 20 -37z m-9 -547 c12 -15 21 -34 21 -44 0 -10 -9 -29 -21
-44 -40 -50 -119 -21 -119 44 0 65 79 94 119 44z m531 6 c11 -11 20 -33 20
-50 0 -65 -79 -94 -119 -44 -27 35 -26 59 4 89 29 30 68 32 95 5z"/>
<path d="M4641 3593 c-13 -13 -34 -23 -47 -23 -13 0 -26 -4 -29 -10 -3 -5 -15
-10 -26 -10 -10 0 -19 -5 -19 -11 0 -7 10 -9 25 -5 14 4 34 2 45 -4 12 -7 21
-7 25 0 3 5 26 10 51 10 32 0 44 4 44 15 0 13 5 12 38 -3 46 -21 53 -31 39
-54 -8 -11 -24 -18 -44 -18 -35 0 -45 15 -15 23 13 4 11 5 -5 6 -13 0 -23 -4
-23 -10 0 -6 -7 -9 -14 -6 -10 4 -13 1 -9 -9 4 -10 -2 -14 -20 -14 -25 0 -52
22 -40 33 3 4 1 7 -5 7 -7 0 -12 -7 -12 -15 0 -8 -4 -15 -10 -15 -5 0 -10 5
-10 10 0 6 -5 10 -11 10 -5 0 -7 -4 -4 -10 4 -6 -6 -10 -22 -10 -20 0 -24 -3
-14 -9 11 -7 10 -10 -5 -14 -16 -4 -16 -5 -2 -6 11 -1 15 -6 12 -16 -4 -9 0
-15 10 -15 10 0 13 6 10 15 -7 16 -2 17 80 16 40 0 54 -5 71 -26 22 -24 42
-35 30 -15 -3 6 -1 10 4 10 6 0 11 4 11 9 0 5 -10 7 -21 4 -15 -4 -20 -2 -17
7 7 21 48 20 48 -1 0 -10 10 -19 25 -23 30 -8 77 3 69 15 -8 14 6 10 22 -6 20
-19 10 -35 -22 -35 -13 0 -24 -4 -24 -10 0 -5 -19 -11 -42 -11 l-43 -1 40 -8
c36 -7 83 -5 113 5 6 2 12 0 12 -5 0 -6 21 -9 48 -8 l47 1 -42 4 c-30 3 -46
10 -53 23 -9 17 -7 20 14 18 14 -1 22 -7 19 -15 -3 -7 3 -11 17 -10 15 1 20 6
17 19 -3 11 0 18 9 18 9 0 14 11 14 28 0 23 -6 30 -33 40 -48 17 -107 16 -107
-3 0 -9 -6 -12 -15 -9 -18 7 -20 31 -2 37 6 2 4 3 -5 2 -26 -4 -42 20 -23 35
11 9 22 9 46 1 40 -14 42 -14 33 0 -5 8 -1 8 14 0 11 -6 27 -8 35 -5 8 3 18 1
22 -5 10 -17 23 -13 30 8 10 32 -26 58 -87 66 -29 3 -96 7 -148 9 -88 2 -97 1
-119 -21z"/>
<path d="M4072 623 c-9 -3 -10 -9 -3 -17 16 -19 6 -50 -18 -56 -21 -5 -19 -7
18 -28 30 -17 45 -21 54 -13 8 6 18 6 27 1 8 -5 31 -7 51 -4 21 4 55 -1 84
-11 44 -14 168 -32 138 -19 -17 7 -17 24 0 24 7 0 18 -9 25 -20 11 -17 16 -19
34 -9 17 9 23 9 26 -1 3 -9 6 -9 13 1 7 11 9 10 9 -3 0 -24 18 -32 36 -17 18
15 71 14 91 -2 7 -6 28 -11 48 -11 19 0 37 -4 40 -9 3 -4 17 -4 31 1 14 6 38
10 54 10 16 0 31 4 35 9 9 15 -53 30 -140 35 -44 3 -123 12 -175 21 -145 24
-207 28 -214 16 -4 -6 -17 -11 -29 -10 -21 0 -21 1 3 11 19 8 21 12 10 16 -8
3 -17 9 -20 13 -3 4 -25 3 -48 -3 -38 -9 -49 -8 -92 12 -27 13 -47 27 -44 32
3 4 -2 8 -11 8 -9 0 -14 4 -10 9 7 12 -6 20 -23 14z"/>
</g>
</svg>
