<?xml version="1.0" encoding="iso-8859-1"?>
<!-- Generator: Adobe Illustrator 19.0.0, SVG Export Plug-In . SVG Version: 6.00 Build 0)  -->
<svg version="1.1" id="Capa_1" xmlns="http://www.w3.org/2000/svg" xmlns:xlink="http://www.w3.org/1999/xlink" x="0px" y="0px"
	 viewBox="0 0 512 512" style="enable-background:new 0 0 512 512;" xml:space="preserve">
<path style="fill:#FF1A56;" d="M452,75v45l-30,31H30L0,120V75c0-24.901,20.099-45,45-45h362C431.901,30,452,50.099,452,75z"/>
<path style="fill:#D81E46;" d="M452,75v45l-30,31H226V30h181C431.901,30,452,50.099,452,75z"/>
<path style="fill:#E1E4FB;" d="M452,120v287c0,24.899-20.099,45-45,45H45c-24.901,0-45-20.101-45-45V120H452z"/>
<path style="fill:#C5C9F7;" d="M452,120v287c0,24.899-20.099,45-45,45H226V120H452z"/>
<path style="fill:#17ACE8;" d="M407,302c-57.9,0-105,47.1-105,105s47.1,105,105,105s105-47.1,105-105S464.9,302,407,302z"/>
<path style="fill:#A8AFF1;" d="M377,272h-60c-8.291,0-15-6.709-15-15v-60c0-8.291,6.709-15,15-15h60c8.291,0,15,6.709,15,15v60
	C392,265.291,385.291,272,377,272z"/>
<path style="fill:#495A79;" d="M347,0c-24.901,0-45,20.099-45,45v30c0,8.399,6.599,15,15,15h60c8.401,0,15-6.601,15-15V45
	C392,20.099,371.901,0,347,0z"/>
<g>
	<path style="fill:#C5C9F7;" d="M135,272H75c-8.291,0-15-6.709-15-15v-60c0-8.291,6.709-15,15-15h60c8.291,0,15,6.709,15,15v60
		C150,265.291,143.291,272,135,272z"/>
	<path style="fill:#C5C9F7;" d="M135,392H75c-8.291,0-15-6.709-15-15v-60c0-8.291,6.709-15,15-15h60c8.291,0,15,6.709,15,15v60
		C150,385.291,143.291,392,135,392z"/>
</g>
<path style="fill:#1689FC;" d="M512,407c0,57.9-47.1,105-105,105V302C464.9,302,512,349.1,512,407z"/>
<path style="fill:#C5C9F7;" d="M257,182h-62c-8.401,0-15,6.599-15,15v60c0,8.399,6.599,15,15,15h62c8.401,0,15-6.601,15-15v-60
	C272,188.599,265.401,182,257,182z"/>
<path style="fill:#A8AFF1;" d="M272,197v60c0,8.399-6.599,15-15,15h-31v-90h31C265.401,182,272,188.599,272,197z"/>
<path style="fill:#C5C9F7;" d="M257,302h-62c-8.401,0-15,6.599-15,15v60c0,8.399,6.599,15,15,15h62c8.401,0,15-6.601,15-15v-60
	C272,308.599,265.401,302,257,302z"/>
<path style="fill:#A8AFF1;" d="M272,317v60c0,8.399-6.599,15-15,15h-31v-90h31C265.401,302,272,308.599,272,317z"/>
<path style="fill:#42516D;" d="M392,45v30c0,8.399-6.599,15-15,15h-30V0C371.901,0,392,20.099,392,45z"/>
<path style="fill:#495A79;" d="M105,0C80.099,0,60,20.099,60,45v30c0,8.399,6.599,15,15,15h60c8.401,0,15-6.601,15-15V45
	C150,20.099,129.901,0,105,0z"/>
<path style="fill:#42516D;" d="M150,45v30c0,8.399-6.599,15-15,15h-30V0C129.901,0,150,20.099,150,45z"/>
<path style="fill:#E1E4FB;" d="M422,347v60c0,3.9-1.5,7.8-4.501,10.499L407,428l-19.501,19.499c-5.7,6-15.298,6-20.999,0
	c-6-5.7-6-15.3,0-21l25.499-25.8V347c0-8.401,6.599-15,15-15S422,338.599,422,347z"/>
<path style="fill:#C5C9F7;" d="M422,347v60c0,3.9-1.5,7.8-4.501,10.499L407,428v-96C415.401,332,422,338.599,422,347z"/>
<g>
</g>
<g>
</g>
<g>
</g>
<g>
</g>
<g>
</g>
<g>
</g>
<g>
</g>
<g>
</g>
<g>
</g>
<g>
</g>
<g>
</g>
<g>
</g>
<g>
</g>
<g>
</g>
<g>
</g>
</svg>
