<svg id="Capa_1" enable-background="new 0 0 512 512" height="512" viewBox="0 0 512 512" width="512" xmlns="http://www.w3.org/2000/svg"><g><path d="m39.545 362.042v116.658h83.252v-116.658c0-5.69-4.612-10.302-10.302-10.302h-62.648c-5.69 0-10.302 4.612-10.302 10.302z" fill="#f6e266"/><path d="m156.098 312.09v166.609h83.252v-166.609c0-5.69-4.612-10.302-10.302-10.302h-62.648c-5.69.001-10.302 4.613-10.302 10.302z" fill="#e49542"/><path d="m272.65 249.651v229.048h83.252v-229.048c0-5.69-4.612-10.302-10.302-10.302h-62.648c-5.689.001-10.302 4.613-10.302 10.302z" fill="#9dc6fb"/><path d="m389.203 208.025v270.674h83.252v-270.674c0-5.69-4.612-10.302-10.302-10.302h-62.648c-5.689.001-10.302 4.613-10.302 10.302z" fill="#c8ea73"/><path d="m272.65 368.144v110.555h83.252v-150.994c-25.572 14.577-53.471 28.197-83.252 40.439z" fill="#80b4fb"/><path d="m220.515 387.482c-21.696 7.21-43.231 13.354-64.417 18.47v72.747h83.252v-97.734c-6.212 2.234-12.49 4.408-18.835 6.517z" fill="#e28424"/><path d="m39.545 424.098v54.601h83.252v-65.491c-28.8 5.585-56.722 9.193-83.252 10.89z" fill="#f1d333"/><path d="m389.203 307.327v171.372h83.252v-240.573c-21.736 23.821-49.92 47.292-83.252 69.201z" fill="#b7e445"/><path d="m0 501.698v-12.697c0-5.69 4.612-10.302 10.302-10.302h491.396c5.69 0 10.302 4.612 10.302 10.302v12.697c0 5.69-4.612 10.302-10.302 10.302h-491.396c-5.69 0-10.302-4.612-10.302-10.302z" fill="#4073c8"/><path d="m455.805 0h-72.95c-5.69 0-10.302 4.612-10.302 10.302v12.697c0 5.69 4.612 10.302 10.302 10.302h32.752l-87.414 87.415h-69.071c-4.667 0-9.12 1.959-12.274 5.399l-98.075 106.991h-99.967c-5.69 0-10.302 4.612-10.302 10.302v12.697c0 5.69 4.612 10.302 10.302 10.302h107.292c4.667 0 9.12-1.959 12.274-5.399l98.075-106.991h68.643c4.416 0 8.651-1.754 11.774-4.877l92.291-92.291v32.752c0 5.69 4.612 10.302 10.302 10.302h12.697c5.69 0 10.302-4.612 10.302-10.302v-72.951c-.001-9.195-7.455-16.65-16.651-16.65z" fill="#dd5790"/></g></svg>