<svg height="512pt" viewBox="0 0 511 512" width="512pt" xmlns="http://www.w3.org/2000/svg" xmlns:xlink="http://www.w3.org/1999/xlink"><linearGradient id="a" gradientUnits="userSpaceOnUse" x1=".5" x2="512.476" y1="256" y2="256"><stop offset="0" stop-color="#00f2fe"/><stop offset=".0208" stop-color="#03effe"/><stop offset=".2931" stop-color="#24d2fe"/><stop offset=".5538" stop-color="#3cbdfe"/><stop offset=".7956" stop-color="#4ab0fe"/><stop offset="1" stop-color="#4facfe"/></linearGradient><path d="m361.5 392v40c0 44.113281-35.886719 80-80 80h-201c-44.113281 0-80-35.886719-80-80v-352c0-44.113281 35.886719-80 80-80h201c44.113281 0 80 35.886719 80 80v40c0 11.046875-8.953125 20-20 20s-20-8.953125-20-20v-40c0-22.054688-17.945312-40-40-40h-201c-22.054688 0-40 17.945312-40 40v352c0 22.054688 17.945312 40 40 40h201c22.054688 0 40-17.945312 40-40v-40c0-11.046875 8.953125-20 20-20s20 8.953125 20 20zm136.355469-170.355469-44.785157-44.785156c-7.8125-7.8125-20.476562-7.8125-28.285156 0-7.8125 7.808594-7.8125 20.472656 0 28.28125l31.855469 31.859375h-240.140625c-11.046875 0-20 8.953125-20 20s8.953125 20 20 20h240.140625l-31.855469 31.859375c-7.8125 7.808594-7.8125 20.472656 0 28.28125 3.90625 3.90625 9.023438 5.859375 14.140625 5.859375 5.121094 0 10.238281-1.953125 14.144531-5.859375l44.785157-44.785156c19.496093-19.496094 19.496093-51.214844 0-70.710938zm0 0" fill="url(#a)"/></svg>