<?xml version="1.0" encoding="iso-8859-1"?>
<!-- Generator: Adobe Illustrator 19.0.0, SVG Export Plug-In . SVG Version: 6.00 Build 0)  -->
<svg version="1.1" id="Capa_1" xmlns="http://www.w3.org/2000/svg" xmlns:xlink="http://www.w3.org/1999/xlink" x="0px" y="0px"
	 viewBox="0 0 512 512" style="enable-background:new 0 0 512 512;" xml:space="preserve">
<path style="fill:#42C3E2;" d="M256,512c215.196,0,287-243.2,0-512C-31,268.8,40.804,512,256,512z"/>
<path style="fill:#00A6C8;" d="M286.905,481.095c-205.033,0-279.896-220.774-38.277-474.115C-29.739,272.996,42.669,512,256,512
	c69.292,0,123.71-25.22,156.077-68.387C380.138,467.658,337.483,481.095,286.905,481.095z"/>
<g>
	<path style="fill:#3B484A;" d="M155.042,309.193c-4.268,0-7.726-3.459-7.726-7.726v-18.271c0-4.267,3.458-7.726,7.726-7.726
		c4.268,0,7.726,3.459,7.726,7.726v18.271C162.769,305.734,159.31,309.193,155.042,309.193z"/>
	<path style="fill:#3B484A;" d="M356.958,309.193c-4.268,0-7.726-3.459-7.726-7.726v-18.271c0-4.267,3.458-7.726,7.726-7.726
		c4.268,0,7.726,3.459,7.726,7.726v18.271C364.684,305.734,361.226,309.193,356.958,309.193z"/>
	<path style="fill:#3B484A;" d="M256,318.946c-11.942,0-23.144-4.981-30.735-13.666c-2.809-3.213-2.481-8.094,0.732-10.902
		c3.211-2.808,8.093-2.481,10.901,0.732c4.657,5.328,11.619,8.384,19.102,8.384s14.443-3.056,19.101-8.383
		c2.808-3.213,7.688-3.541,10.902-0.731c3.212,2.808,3.541,7.689,0.731,10.902C279.143,313.965,267.941,318.946,256,318.946z"/>
</g>
<g>
</g>
<g>
</g>
<g>
</g>
<g>
</g>
<g>
</g>
<g>
</g>
<g>
</g>
<g>
</g>
<g>
</g>
<g>
</g>
<g>
</g>
<g>
</g>
<g>
</g>
<g>
</g>
<g>
</g>
</svg>
