<svg id="Capa_1" enable-background="new 0 0 509.793 509.793" height="512" viewBox="0 0 509.793 509.793" width="512" xmlns="http://www.w3.org/2000/svg"><g><g><path d="m442.4 407.388c0 10.344-8.385 18.729-18.729 18.729s-18.729-8.385-18.729-18.729c0-6.329 7.011-18.654 12.454-27.269 2.913-4.611 9.635-4.611 12.549 0 5.444 8.614 12.455 20.94 12.455 27.269z" fill="#9ec8fc"/></g><g><path d="m431.572 333.979h-19.221c-2.7 0-4.889-2.189-4.889-4.889v-5.043c0-5.886-4.772-10.658-10.658-10.658h-84.751v-29h93.74c16.938 0 30.669 13.731 30.669 30.669v14.031c0 2.7-2.189 4.89-4.89 4.89z" fill="#b4aaaa"/></g><g><path d="m130.25 502.293h-18.78c-4.819 0-8.726-3.907-8.726-8.726v-104.768h36.232v104.768c0 4.819-3.907 8.726-8.726 8.726z" fill="#cf9875"/></g><g><path d="m281.297 502.293h-18.78c-4.819 0-8.726-3.907-8.726-8.726v-104.768h36.232v104.768c0 4.819-3.907 8.726-8.726 8.726z" fill="#cf9875"/></g><g><path d="m318.319 388.799h-243.872c-3.896 0-7.054-3.158-7.054-7.054v-22.123c0-3.896 3.158-7.054 7.054-7.054h243.872c3.896 0 7.054 3.158 7.054 7.054v22.123c.001 3.895-3.158 7.054-7.054 7.054z" fill="#cf9875"/></g><g><path d="m296.867 352.513h-200.967c-8.387 0-15.186-6.799-15.186-15.186v-314.64c0-8.388 6.799-15.187 15.186-15.187h200.967c8.387 0 15.187 6.799 15.187 15.187v314.64c-.001 8.387-6.8 15.186-15.187 15.186z" fill="#c8beb9"/></g><g><path d="m296.867 7.5h-30c8.387 0 15.187 6.799 15.187 15.187v314.64c0 8.387-6.799 15.186-15.187 15.186h30c8.387 0 15.187-6.799 15.187-15.186v-314.64c-.001-8.388-6.8-15.187-15.187-15.187z" fill="#b4aaaa"/></g><g><path d="m238.432 203.795c0 22.549-18.28 40.829-40.829 40.829s-40.829-18.28-40.829-40.829c0-15.156 18.444-46.085 30.539-64.739 4.837-7.46 15.743-7.46 20.58 0 12.095 18.654 30.539 49.583 30.539 64.739z" fill="#9ec8fc"/></g><g><path d="m207.893 139.056c-4.837-7.46-15.743-7.46-20.58 0-1.489 2.296-3.075 4.78-4.71 7.396 11.647 18.635 25.829 44.053 25.829 57.342 0 17.251-10.705 31.992-25.829 37.973 4.645 1.836 9.702 2.857 15 2.857 22.549 0 40.829-18.28 40.829-40.829 0-15.156-18.444-46.085-30.539-64.739z" fill="#80b6fc"/></g><g><path d="m319.553 320.889h77.251c1.741 0 3.158 1.417 3.158 3.158v5.043c0 6.832 5.558 12.39 12.39 12.39h19.221c6.831 0 12.39-5.558 12.39-12.39v-14.031c0-21.046-17.122-38.169-38.169-38.169h-31.501v-25.153h8.845c4.142 0 7.5-3.358 7.5-7.5s-3.358-7.5-7.5-7.5h-8.845v-10.133c0-4.142-3.358-7.5-7.5-7.5s-7.5 3.358-7.5 7.5v10.133h-8.845c-4.142 0-7.5 3.358-7.5 7.5s3.358 7.5 7.5 7.5h8.845v25.153h-39.738v-254.203c-.002-12.51-10.179-22.687-22.689-22.687h-135.657c-4.142 0-7.5 3.358-7.5 7.5s3.358 7.5 7.5 7.5h135.657c4.238 0 7.686 3.448 7.686 7.687v53.438h-22.208c-4.142 0-7.5 3.358-7.5 7.5s3.358 7.5 7.5 7.5h22.208v25.153h-22.208c-4.142 0-7.5 3.358-7.5 7.5s3.358 7.5 7.5 7.5h22.208v25.152h-22.208c-4.142 0-7.5 3.358-7.5 7.5s3.358 7.5 7.5 7.5h22.208v25.153h-22.208c-4.142 0-7.5 3.358-7.5 7.5s3.358 7.5 7.5 7.5h22.208v25.153h-22.208c-4.142 0-7.5 3.358-7.5 7.5s3.358 7.5 7.5 7.5h22.208v25.153h-22.208c-4.142 0-7.5 3.358-7.5 7.5s3.358 7.5 7.5 7.5h22.208v21.5 23.938c0 4.238-3.448 7.687-7.686 7.687h-200.966c-4.238 0-7.687-3.448-7.687-7.687v-45.438h24.646c4.142 0 7.5-3.358 7.5-7.5s-3.358-7.5-7.5-7.5h-24.645v-25.153h24.646c4.142 0 7.5-3.358 7.5-7.5s-3.358-7.5-7.5-7.5h-24.646v-25.153h24.646c4.142 0 7.5-3.358 7.5-7.5s-3.358-7.5-7.5-7.5h-24.646v-25.153h24.646c4.142 0 7.5-3.358 7.5-7.5s-3.358-7.5-7.5-7.5h-24.646v-25.152h24.646c4.142 0 7.5-3.358 7.5-7.5s-3.358-7.5-7.5-7.5h-24.646v-25.153h24.646c4.142 0 7.5-3.358 7.5-7.5s-3.358-7.5-7.5-7.5h-24.646v-53.438c0-4.238 3.448-7.687 7.687-7.687h35.309c4.142 0 7.5-3.358 7.5-7.5s-3.358-7.5-7.5-7.5h-35.31c-12.509 0-22.686 10.177-22.686 22.687v314.64c0 2.717.481 5.324 1.361 7.74h-.128c-8.025 0-14.554 6.529-14.554 14.554v22.124c0 8.025 6.529 14.554 14.554 14.554h20.797v28.925c0 4.142 3.358 7.5 7.5 7.5s7.5-3.358 7.5-7.5v-28.925h21.232v97.268c0 .676-.55 1.226-1.226 1.226h-18.78c-.676 0-1.226-.55-1.226-1.226v-38.343c0-4.142-3.358-7.5-7.5-7.5s-7.5 3.358-7.5 7.5v38.343c0 8.947 7.279 16.226 16.226 16.226h18.78c8.947 0 16.226-7.279 16.226-16.226v-13.275l49.908-29.564 49.907 29.564v13.275c0 8.947 7.279 16.226 16.226 16.226h18.78c8.947 0 16.226-7.279 16.226-16.226v-97.268h20.797c8.025 0 14.554-6.529 14.554-14.554v-22.124c0-8.025-6.529-14.554-14.554-14.554h-.128c.88-2.417 1.361-5.023 1.361-7.74zm-73.262 75.41v7.432l-49.907 29.564-49.908-29.564v-7.432zm-99.815 66.559v-41.694l35.192 20.847zm64.622-20.846 35.192-20.847v41.694zm71.425 51.555c0 .676-.55 1.226-1.226 1.226h-18.78c-.676 0-1.226-.55-1.226-1.226v-97.268h21.232zm35.351-112.268h-242.981v-21.232h242.981zm87.919-89.41c12.775 0 23.169 10.393 23.169 23.169v11.421h-14v-2.432c0-10.012-8.146-18.158-18.158-18.158h-77.251v-14z"/><path d="m245.931 203.795c0-13.178-10.681-36.332-31.746-68.819-3.66-5.645-9.859-9.015-16.583-9.015s-12.923 3.37-16.583 9.014c-21.065 32.487-31.746 55.641-31.746 68.819 0 26.649 21.68 48.329 48.329 48.329 26.649.001 48.329-21.679 48.329-48.328zm-81.658 0c0-9.657 10.965-32.333 29.332-60.659 1.273-1.963 3.219-2.175 3.997-2.175s2.724.212 3.997 2.175c18.367 28.325 29.332 51.001 29.332 60.658 0 18.378-14.951 33.329-33.329 33.329-18.378.001-33.329-14.95-33.329-33.328z"/><path d="m436.286 376.113c-2.75-4.354-7.467-6.953-12.616-6.953-5.148 0-9.864 2.6-12.614 6.952-12.203 19.314-13.614 27.099-13.614 31.275 0 14.463 11.766 26.229 26.229 26.229 14.462 0 26.229-11.766 26.229-26.229 0-4.176-1.411-11.962-13.614-31.274zm-12.614 42.504c-6.192 0-11.229-5.037-11.229-11.229 0-1.995 2.366-9.11 11.229-23.157 8.861 14.04 11.228 21.162 11.228 23.157 0 6.192-5.037 11.229-11.228 11.229z"/></g></g></svg>